<svg width="56" height="56" viewBox="0 0 56 56" fill="none" xmlns="http://www.w3.org/2000/svg">
<rect width="56" height="56" fill="#F2F2F2"/>
<path d="M15.4152 28.8565C17.308 32.8075 23.6736 33.736 29.6321 30.9307C35.5914 28.1254 38.8878 22.6493 36.9951 18.6983C36.6713 18.0227 37.3772 15.5354 36.5643 15.5888C34.5211 15.7233 33.3143 15.1779 31.8162 14.7034C28.958 13.7968 25.4196 13.8487 22.1792 15.3746C19.377 16.6928 17.2962 18.8789 16.0747 21.2353C15.1585 23.0024 14.3885 25.0656 13.2031 26.2384C12.6042 26.8313 15.0796 28.1561 15.4152 28.8565Z" fill="black"/>
<path d="M9.17506 36.3994C11.787 41.8514 49.4477 24.1238 46.835 18.6718C45.1415 15.1376 34.204 13.872 23.8043 18.7676C13.4046 23.6632 7.12595 32.1231 9.17506 36.3994Z" fill="black"/>
<path d="M9.27393 36.6052C10.9609 40.1263 21.6158 40.7997 32.0148 35.9041C42.4145 31.0092 48.6208 22.3987 46.9339 18.8776C45.247 15.3565 35.3171 16.1944 24.9174 21.09C14.5177 25.9856 7.58699 33.0841 9.27393 36.6052Z" fill="#0077FF"/>
<path d="M20.533 34.8156C21.3341 36.4876 25.9877 35.959 30.9269 33.6341C35.866 31.3091 39.2199 28.0687 38.4189 26.3959C37.6178 24.7238 32.9642 25.2532 28.0251 27.5782C23.0859 29.9031 19.732 33.1435 20.533 34.8156Z" fill="white"/>
</svg>
