<svg width="56" height="56" viewBox="0 0 56 56" fill="none" xmlns="http://www.w3.org/2000/svg">
<rect width="56" height="56" fill="#F2F2F2"/>
<path fill-rule="evenodd" clip-rule="evenodd" d="M37.8228 11.3994C33.4338 8.86539 27.8216 10.3692 25.2876 14.7582C22.7536 19.1472 24.2574 24.7595 28.6464 27.2935C33.0354 29.8275 38.6477 28.3237 41.1817 23.9347C43.7157 19.5456 42.2119 13.9334 37.8228 11.3994Z" fill="url(#paint0_linear)"/>
<path fill-rule="evenodd" clip-rule="evenodd" d="M37.9693 29.4975C33.5803 26.9635 27.9681 28.4673 25.4341 32.8564C22.9001 37.2454 24.4039 42.8576 28.7929 45.3916C33.1819 47.9256 38.7941 46.4218 41.3281 42.0328C43.8622 37.6438 42.3584 32.0315 37.9693 29.4975Z" fill="url(#paint1_linear)"/>
<path fill-rule="evenodd" clip-rule="evenodd" d="M22.0767 20.3213C17.6877 17.7873 12.0755 19.2911 9.54149 23.6801C7.00748 28.0691 8.51128 33.6813 12.9003 36.2153C17.2893 38.7494 22.9016 37.2456 25.4356 32.8565C27.9696 28.4675 26.4658 22.8553 22.0767 20.3213Z" fill="url(#paint2_linear)"/>
<path fill-rule="evenodd" clip-rule="evenodd" d="M22.4468 46.1012C17.3376 46.1012 13.2754 42.1612 13.2754 37.0681C13.2754 34.9174 13.7916 33.799 14.8931 31.7614C15.2622 31.1119 16.0612 29.5054 16.0612 27.7697C16.0612 26.07 15.295 24.5266 14.9166 23.8681C13.8818 22.1416 13.2754 20.484 13.2754 18.4858C13.2754 13.3927 17.3376 9.3667 22.4468 9.3667C26.2401 9.3667 29.1908 11.6035 30.9278 14.8207C31.7717 16.249 32.4599 17.0233 33.5783 17.6255C35.5561 18.6905 37.9372 18.5764 37.9372 18.5764H38.5201C43.6293 18.5764 47.6871 22.6766 47.6871 27.7697C47.6871 32.8628 43.4165 36.9625 38.5201 36.896C38.054 36.8897 35.2989 36.6379 33.3202 37.9284C32.1351 38.7013 31.653 39.3485 30.8253 40.7673C29.0187 43.8644 26.3921 46.1012 22.4468 46.1012Z" fill="#FF0000"/>
<path fill-rule="evenodd" clip-rule="evenodd" d="M33.569 23.8633L28.9308 28.3997V34.0397C28.9308 34.1412 28.4906 34.2225 27.9896 34.2293C27.5088 34.2225 27.0484 34.1412 27.0484 34.0397V28.3997L22.4102 23.8633C22.3357 23.7888 22.5727 23.4367 22.9383 23.0711C23.304 22.7055 23.6628 22.4685 23.7305 22.543L27.9828 26.6934L32.2351 22.543C32.3096 22.4685 32.6617 22.7055 33.0273 23.0711C33.3929 23.4367 33.6367 23.7888 33.569 23.8633Z" fill="white"/>
<defs>
<linearGradient id="paint0_linear" x1="34.3554" y1="10.2325" x2="30.0417" y2="26.5163" gradientUnits="userSpaceOnUse">
<stop stop-color="#FFE800"/>
<stop offset="1" stop-color="#FE0000"/>
</linearGradient>
<linearGradient id="paint1_linear" x1="30.1882" y1="44.6144" x2="34.5019" y2="28.3306" gradientUnits="userSpaceOnUse">
<stop stop-color="#FFE800"/>
<stop offset="1" stop-color="#FE0000"/>
</linearGradient>
<linearGradient id="paint2_linear" x1="8.31055" y1="25.1394" x2="24.5944" y2="29.4531" gradientUnits="userSpaceOnUse">
<stop stop-color="#FFE800"/>
<stop offset="1" stop-color="#FE0000"/>
</linearGradient>
</defs>
</svg>
