<svg width="56" height="56" viewBox="0 0 56 56" fill="none" xmlns="http://www.w3.org/2000/svg">
<rect width="56" height="56" fill="#F2F2F2"/>
<path fill-rule="evenodd" clip-rule="evenodd" d="M45.0625 15.3814V40.4791C45.0625 40.7248 45.0018 40.9667 44.8859 41.1834C44.7699 41.4001 44.6023 41.5848 44.3978 41.7211C44.1933 41.8574 43.9584 41.9411 43.7138 41.9648C43.4692 41.9885 43.2225 41.9515 42.9957 41.857L31.6324 37.1223C31.5672 37.0951 31.5115 37.0492 31.4722 36.9904C31.433 36.9316 31.4121 36.8625 31.4121 36.7918V18.83L42.9957 14.0035C43.2225 13.909 43.4692 13.8719 43.7138 13.8956C43.9584 13.9193 44.1933 14.0031 44.3978 14.1394C44.6023 14.2757 44.7699 14.4604 44.8859 14.677C45.0018 14.8937 45.0625 15.1356 45.0625 15.3814Z" fill="#FF78DF"/>
<path fill-rule="evenodd" clip-rule="evenodd" d="M10.9375 15.2134V40.6472C10.9375 40.8837 10.9937 41.1168 11.1015 41.3274C11.2093 41.5379 11.3655 41.7198 11.5574 41.8581C11.7493 41.9964 11.9713 42.0871 12.2051 42.1228C12.4389 42.1585 12.6779 42.1381 12.9022 42.0633L24.5879 38.1681V17.6925L12.9022 13.7973C12.6779 13.7225 12.4389 13.7021 12.2051 13.7378C11.9713 13.7734 11.7493 13.8642 11.5574 14.0025C11.3655 14.1408 11.2093 14.3227 11.1015 14.5332C10.9937 14.7438 10.9375 14.9769 10.9375 15.2134Z" fill="#30C0FF"/>
<path fill-rule="evenodd" clip-rule="evenodd" d="M17.7617 21.5137V34.3473C17.7617 34.5616 17.8234 34.7714 17.9394 34.9515C18.0554 35.1317 18.2209 35.2747 18.4159 35.3633L34.9893 42.8967C35.2167 43 35.4664 43.0447 35.7155 43.0265C35.9646 43.0084 36.2052 42.928 36.4152 42.7928C36.6252 42.6576 36.7979 42.4718 36.9175 42.2526C37.0371 42.0333 37.0997 41.7875 37.0997 41.5378V14.3233C37.0997 14.0735 37.0371 13.8277 36.9175 13.6085C36.7979 13.3892 36.6252 13.2035 36.4152 13.0682C36.2052 12.933 35.9646 12.8527 35.7155 12.8345C35.4664 12.8164 35.2167 12.861 34.9893 12.9644L18.4159 20.4978C18.2209 20.5864 18.0554 20.7294 17.9394 20.9095C17.8234 21.0897 17.7617 21.2994 17.7617 21.5137Z" fill="url(#paint0_linear)"/>
<defs>
<linearGradient id="paint0_linear" x1="28.0002" y1="27.9999" x2="20.7815" y2="27.9999" gradientUnits="userSpaceOnUse">
<stop stop-color="#C02FFF"/>
<stop offset="1" stop-color="#481EFC"/>
</linearGradient>
</defs>
</svg>
