<svg width="56" height="56" viewBox="0 0 56 56" fill="none" xmlns="http://www.w3.org/2000/svg">
<rect width="56" height="56" fill="#F2F2F2"/>
<path d="M27.9999 18.5197C27.9999 18.5197 27.3425 16.7307 25.5428 14.9378C22.0209 11.4305 16.339 11.3449 12.7122 14.7444C8.91231 18.3113 8.86904 24.0132 11.2298 28.1743C15.6128 35.9022 27.9972 44.1 27.9972 44.1C28.0027 44.1 40.3878 35.9044 44.7703 28.1759C47.1309 24.0132 47.0877 18.3113 43.2878 14.746C39.661 11.3465 33.9791 11.4322 30.4572 14.9395C28.6553 16.7307 27.9999 18.5197 27.9999 18.5197Z" fill="#FF3333"/>
<path fill-rule="evenodd" clip-rule="evenodd" d="M38.4999 22.8342V24.157C38.4999 24.8877 37.9123 25.48 37.1874 25.48C36.4626 25.48 35.8749 24.8877 35.8749 24.157V22.8342H34.5625C33.8376 22.8342 33.25 22.2418 33.25 21.5112C33.25 20.7805 33.8376 20.1882 34.5625 20.1882H35.8749V18.865C35.8749 18.1343 36.4626 17.542 37.1874 17.542C37.9123 17.542 38.4999 18.1343 38.4999 18.865V20.1882H39.8125C40.5374 20.1882 41.125 20.7805 41.125 21.5112C41.125 22.2418 40.5374 22.8342 39.8125 22.8342H38.4999Z" fill="white"/>
</svg>
