<svg width="56" height="56" viewBox="0 0 56 56" fill="none" xmlns="http://www.w3.org/2000/svg">
<rect width="56" height="56" fill="#F2F2F2"/>
<g clip-path="url(#clip0)">
<path d="M43.1593 34.644C42.3483 41.5586 35.2912 47.3298 31.0123 48.7793C28.6517 49.579 28.0037 48.064 28.0037 46.5248C27.9954 45.4174 28.0037 43.2166 28.0037 41.0952C28.0037 41.0952 40.8367 34.644 43.1593 34.644Z" fill="#C4C4C4"/>
<path d="M43.1593 34.644C42.3483 41.5586 35.2912 47.3298 31.0123 48.7793C28.6517 49.579 28.0037 48.064 28.0037 46.5248C27.9954 45.4174 28.0037 43.2166 28.0037 41.0952C28.0037 41.0952 40.8367 34.644 43.1593 34.644Z" fill="url(#paint0_linear)"/>
<path d="M12.4782 18.823C12.9484 12.1394 14.7644 10.3234 21.4481 9.85321C25.7738 9.54893 30.2261 9.54893 34.5518 9.85321C41.2354 10.3234 43.0515 12.1394 43.5217 18.823C43.826 23.1487 43.826 27.6009 43.5217 31.9266C43.0515 38.6101 41.2354 40.4262 34.5518 40.8963C30.2261 41.2007 25.7738 41.2007 21.4481 40.8963C14.7644 40.4262 12.9484 38.6101 12.4782 31.9266C12.1739 27.6009 12.1739 23.1487 12.4782 18.823Z" fill="#FF3333"/>
<path d="M20.125 20.125C20.125 18.8875 20.125 18.2688 20.5094 17.8844C20.8939 17.5 21.5126 17.5 22.75 17.5H26.0312V23.4062H20.125V20.125Z" fill="#FFDD00"/>
<path d="M20.125 20.125C20.125 18.8875 20.125 18.2688 20.5094 17.8844C20.8939 17.5 21.5126 17.5 22.75 17.5H26.0312V23.4062H20.125V20.125Z" fill="url(#paint1_linear)"/>
<path d="M20.125 27.3438V30.625C20.125 31.8624 20.125 32.4811 20.5094 32.8655C20.8939 33.2499 21.5126 33.2499 22.75 33.2499H26.0312V27.3438H20.125Z" fill="#FFDD00"/>
<path d="M20.125 27.3438V30.625C20.125 31.8624 20.125 32.4811 20.5094 32.8655C20.8939 33.2499 21.5126 33.2499 22.75 33.2499H26.0312V27.3438H20.125Z" fill="url(#paint2_linear)"/>
<path d="M29.9688 33.2498V17.5H33.25C34.4874 17.5 35.1061 17.5 35.4906 17.8844C35.875 18.2688 35.875 18.8875 35.875 20.125V30.6248C35.875 31.8622 35.875 32.4809 35.4906 32.8654C35.1061 33.2498 34.4874 33.2498 33.25 33.2498H29.9688Z" fill="#FFDD00"/>
<path d="M29.9688 33.2498V17.5H33.25C34.4874 17.5 35.1061 17.5 35.4906 17.8844C35.875 18.2688 35.875 18.8875 35.875 20.125V30.6248C35.875 31.8622 35.875 32.4809 35.4906 32.8654C35.1061 33.2498 34.4874 33.2498 33.25 33.2498H29.9688Z" fill="url(#paint3_linear)"/>
</g>
<defs>
<linearGradient id="paint0_linear" x1="35.4831" y1="34.8424" x2="35.4831" y2="49.2167" gradientUnits="userSpaceOnUse">
<stop offset="0.104167" stop-color="#C00109"/>
<stop offset="0.869792" stop-color="#FF3333"/>
</linearGradient>
<linearGradient id="paint1_linear" x1="28" y1="17.5" x2="28" y2="33.2498" gradientUnits="userSpaceOnUse">
<stop stop-color="#FFF191"/>
<stop offset="1" stop-color="#FFDD00"/>
</linearGradient>
<linearGradient id="paint2_linear" x1="28" y1="17.5001" x2="28" y2="33.2499" gradientUnits="userSpaceOnUse">
<stop stop-color="#FFF191"/>
<stop offset="1" stop-color="#FFDD00"/>
</linearGradient>
<linearGradient id="paint3_linear" x1="28" y1="17.5" x2="28" y2="33.2498" gradientUnits="userSpaceOnUse">
<stop stop-color="#FFF191"/>
<stop offset="1" stop-color="#FFDD00"/>
</linearGradient>
<clipPath id="clip0">
<rect width="42" height="42" fill="white" transform="translate(7 7)"/>
</clipPath>
</defs>
</svg>
