<svg width="56" height="56" viewBox="0 0 56 56" fill="none" xmlns="http://www.w3.org/2000/svg">
<rect width="56" height="56" fill="#F2F2F2"/>
<path fill-rule="evenodd" clip-rule="evenodd" d="M26.25 12.75C26.25 12.4739 26.4739 12.25 26.75 12.25H29.25C29.5261 12.25 29.75 12.4739 29.75 12.75V22.25C29.75 22.5261 29.5261 22.75 29.25 22.75H26.75C26.4739 22.75 26.25 22.5261 26.25 22.25V12.75ZM19.25 26.75C19.25 26.4739 19.4739 26.25 19.75 26.25H29.25C29.5261 26.25 29.75 26.4739 29.75 26.75V29.75H26.25H19.75C19.4739 29.75 19.25 29.5261 19.25 29.25V26.75ZM15.25 29.75C15.5261 29.75 15.75 29.5261 15.75 29.25V26.75C15.75 26.4739 15.5261 26.25 15.25 26.25H12.75C12.4739 26.25 12.25 26.4739 12.25 26.75V29.25C12.25 29.5261 12.4739 29.75 12.75 29.75H15.25ZM12.25 36.75V42.75C12.25 43.3023 12.6977 43.75 13.25 43.75H21.75C22.3023 43.75 22.75 43.3023 22.75 42.75V36.75H19.25V40.25H15.75V36.75H12.25ZM26.25 36.75V43.25C26.25 43.5261 26.4739 43.75 26.75 43.75H36.25C36.5261 43.75 36.75 43.5261 36.75 43.25V40.75C36.75 40.4739 36.5261 40.25 36.25 40.25H29.75V36.75H26.25ZM40.25 36.75V43.25C40.25 43.5261 40.4739 43.75 40.75 43.75H43.25C43.5261 43.75 43.75 43.5261 43.75 43.25V36.75H40.25ZM43.75 29.75V26.75C43.75 26.4739 43.5261 26.25 43.25 26.25H33.75C33.4739 26.25 33.25 26.4739 33.25 26.75V29.25C33.25 29.5261 33.4739 29.75 33.75 29.75H39.75H43.75ZM12.25 13.25C12.25 12.6977 12.6977 12.25 13.25 12.25H21.75C22.3023 12.25 22.75 12.6977 22.75 13.25V21.75C22.75 22.3023 22.3023 22.75 21.75 22.75H13.25C12.6977 22.75 12.25 22.3023 12.25 21.75V13.25ZM15.75 15.75H19.25V19.25H15.75V15.75ZM34.25 12.25C33.6977 12.25 33.25 12.6977 33.25 13.25V21.75C33.25 22.3023 33.6977 22.75 34.25 22.75H42.75C43.3023 22.75 43.75 22.3023 43.75 21.75V13.25C43.75 12.6977 43.3023 12.25 42.75 12.25H34.25ZM40.25 15.75H36.75V19.25H40.25V15.75Z" fill="#45474D"/>
<rect x="10.5" y="31.5" width="35" height="3.5" rx="1.75" fill="#FF3333"/>
</svg>
