<svg width="56" height="56" viewBox="0 0 56 56" fill="none" xmlns="http://www.w3.org/2000/svg">
<rect width="56" height="56" fill="#F2F2F2"/>
<rect x="9.625" y="9.625" width="36.75" height="36.75" rx="7" fill="#FFCC00"/>
<rect x="9.625" y="9.625" width="36.75" height="36.75" rx="7" fill="url(#paint0_radial)" fill-opacity="0.5"/>
<mask id="mask0" mask-type="alpha" maskUnits="userSpaceOnUse" x="9" y="9" width="38" height="38">
<path d="M9.625 28C9.625 19.3379 9.625 15.0069 12.316 12.316C15.0069 9.625 19.3379 9.625 28 9.625C36.6621 9.625 40.9931 9.625 43.684 12.316C46.375 15.0069 46.375 19.3379 46.375 28C46.375 36.6621 46.375 40.9931 43.684 43.684C40.9931 46.375 36.6621 46.375 28 46.375C19.3379 46.375 15.0069 46.375 12.316 43.684C9.625 40.9931 9.625 36.6621 9.625 28Z" fill="#FFCC00"/>
</mask>
<g mask="url(#mask0)">
<path opacity="0.7" fill-rule="evenodd" clip-rule="evenodd" d="M5.9502 46.3748L20.6502 31.6748L35.3502 46.3748H5.9502Z" fill="url(#paint1_linear)"/>
<path fill-rule="evenodd" clip-rule="evenodd" d="M18.2002 46.375L35.3502 28L52.5002 46.375H18.2002Z" fill="#FF3333"/>
<path d="M20.0375 24.325C22.4054 24.325 24.325 22.4054 24.325 20.0375C24.325 17.6696 22.4054 15.75 20.0375 15.75C17.6696 15.75 15.75 17.6696 15.75 20.0375C15.75 22.4054 17.6696 24.325 20.0375 24.325Z" fill="white"/>
</g>
<defs>
<radialGradient id="paint0_radial" cx="0" cy="0" r="1" gradientUnits="userSpaceOnUse" gradientTransform="translate(20.0375 20.0375) rotate(119.055) scale(12.6121 12.2148)">
<stop stop-color="white"/>
<stop offset="1" stop-color="white" stop-opacity="0"/>
</radialGradient>
<linearGradient id="paint1_linear" x1="17.5877" y1="30.4498" x2="22.8721" y2="51.1129" gradientUnits="userSpaceOnUse">
<stop stop-color="#FFC503"/>
<stop offset="0.183008" stop-color="#FF9502"/>
<stop offset="0.380909" stop-color="#FF5B01"/>
<stop offset="0.486086" stop-color="#FF3101"/>
<stop offset="0.688788" stop-color="#FF1800"/>
<stop offset="1" stop-color="#FF0E00"/>
</linearGradient>
</defs>
</svg>
