<svg width="56" height="56" viewBox="0 0 56 56" fill="none" xmlns="http://www.w3.org/2000/svg">
<rect width="56" height="56" fill="#F2F2F2"/>
<path fill-rule="evenodd" clip-rule="evenodd" d="M36.9932 32.5172L35.2852 30.8088C35.2852 30.8088 36.1395 29.2716 36.9932 28.417C37.4692 27.9409 37.8925 27.6242 38.1733 27.4367C38.3727 27.304 38.6367 27.3279 38.8066 27.4978L40.304 28.9956C40.4704 29.1621 40.4999 29.424 40.3693 29.6206C40.1833 29.9022 39.8645 30.3284 39.3843 30.8088C38.5307 31.6633 36.9932 32.5172 36.9932 32.5172Z" fill="#FFCC00"/>
<path fill-rule="evenodd" clip-rule="evenodd" d="M36.9932 32.5172L35.2852 30.8088C35.2852 30.8088 36.1395 29.2716 36.9932 28.417C37.4692 27.9409 37.8925 27.6242 38.1733 27.4367C38.3727 27.304 38.6367 27.3279 38.8066 27.4978L40.304 28.9956C40.4704 29.1621 40.4999 29.424 40.3693 29.6206C40.1833 29.9022 39.8645 30.3284 39.3843 30.8088C38.5307 31.6633 36.9932 32.5172 36.9932 32.5172Z" fill="url(#paint0_linear)"/>
<path fill-rule="evenodd" clip-rule="evenodd" d="M25.1866 20.7101L23.4785 19.0016C23.4785 19.0016 24.3329 17.4645 25.1866 16.6099C25.6625 16.1338 26.0859 15.8171 26.3667 15.6296C26.5661 15.4969 26.83 15.5208 26.9999 15.6907L28.4973 17.1885C28.6637 17.3549 28.6932 17.6169 28.5626 17.8135C28.3766 18.0951 28.0579 18.5213 27.5777 19.0016C26.724 19.8562 25.1866 20.7101 25.1866 20.7101Z" fill="#FFCC00"/>
<path fill-rule="evenodd" clip-rule="evenodd" d="M25.1866 20.7101L23.4785 19.0016C23.4785 19.0016 24.3329 17.4645 25.1866 16.6099C25.6625 16.1338 26.0859 15.8171 26.3667 15.6296C26.5661 15.4969 26.83 15.5208 26.9999 15.6907L28.4973 17.1885C28.6637 17.3549 28.6932 17.6169 28.5626 17.8135C28.3766 18.0951 28.0579 18.5213 27.5777 19.0016C26.724 19.8562 25.1866 20.7101 25.1866 20.7101Z" fill="url(#paint1_linear)"/>
<path fill-rule="evenodd" clip-rule="evenodd" d="M32.1709 19.8703L14.7458 15.7925L13.4277 17.1099L26.775 25.2663L30.7445 29.204L38.8741 42.5931L40.1952 41.2786L36.1563 23.7922L32.1709 19.8703Z" fill="black"/>
<path fill-rule="evenodd" clip-rule="evenodd" d="M19.789 33.6245L11.6715 32.5176L10.9336 33.2555L18.3131 37.6833L22.7409 45.0628L23.4788 44.3248L22.3719 36.2074C19.7673 37.0242 18.9846 36.2321 19.789 33.6245Z" fill="black"/>
<path fill-rule="evenodd" clip-rule="evenodd" d="M44.8805 11.1167C44.1806 10.4176 40.3195 11.7225 37.1344 14.9077C36.1001 15.9426 34.2324 17.8104 32.1718 19.8703L26.7758 25.2662C25.1832 26.8595 23.842 28.2007 23.1241 28.9186C21.8147 30.2274 19.9524 32.5087 19.0521 33.9933C18.5036 34.8978 16.7681 37.6129 17.5762 38.421C18.3843 39.2291 21.129 37.4949 22.0039 36.9451C23.5 36.005 25.7777 34.1716 27.077 32.8723C27.8029 32.1471 29.1491 30.8001 30.7453 29.2039L36.1572 23.7921C38.204 21.7452 40.058 19.8912 41.088 18.8613C44.2731 15.6761 45.5796 11.8158 44.8805 11.1167Z" fill="#FFCC00"/>
<path fill-rule="evenodd" clip-rule="evenodd" d="M44.8805 11.1167C44.1806 10.4176 40.3195 11.7225 37.1344 14.9077C36.1001 15.9426 34.2324 17.8104 32.1718 19.8703L26.7758 25.2662C25.1832 26.8595 23.842 28.2007 23.1241 28.9186C21.8147 30.2274 19.9524 32.5087 19.0521 33.9933C18.5036 34.8978 16.7681 37.6129 17.5762 38.421C18.3843 39.2291 21.129 37.4949 22.0039 36.9451C23.5 36.005 25.7777 34.1716 27.077 32.8723C27.8029 32.1471 29.1491 30.8001 30.7453 29.2039L36.1572 23.7921C38.204 21.7452 40.058 19.8912 41.088 18.8613C44.2731 15.6761 45.5796 11.8158 44.8805 11.1167Z" fill="url(#paint2_linear)"/>
<defs>
<linearGradient id="paint0_linear" x1="37.1646" y1="29.8775" x2="37.907" y2="30.6199" gradientUnits="userSpaceOnUse">
<stop stop-color="#FFE44E"/>
<stop offset="1" stop-color="#FFCC00"/>
</linearGradient>
<linearGradient id="paint1_linear" x1="25.358" y1="18.0703" x2="26.1004" y2="18.8127" gradientUnits="userSpaceOnUse">
<stop stop-color="#FFE44E"/>
<stop offset="1" stop-color="#FFCC00"/>
</linearGradient>
<linearGradient id="paint2_linear" x1="27.443" y1="24.4773" x2="31.4238" y2="28.4581" gradientUnits="userSpaceOnUse">
<stop stop-color="#FFE44E"/>
<stop offset="1" stop-color="#FFCC00"/>
</linearGradient>
</defs>
</svg>
