<svg width="56" height="56" viewBox="0 0 56 56" fill="none" xmlns="http://www.w3.org/2000/svg">
<rect width="56" height="56" fill="#F2F2F2"/>
<path d="M9.625 28C9.625 19.3379 9.625 15.0069 12.316 12.316C15.0069 9.625 19.3379 9.625 28 9.625C36.6621 9.625 40.9931 9.625 43.684 12.316C46.375 15.0069 46.375 19.3379 46.375 28C46.375 36.6621 46.375 40.9931 43.684 43.684C40.9931 46.375 36.6621 46.375 28 46.375C19.3379 46.375 15.0069 46.375 12.316 43.684C9.625 40.9931 9.625 36.6621 9.625 28Z" fill="#FFCC00"/>
<mask id="mask0" mask-type="alpha" maskUnits="userSpaceOnUse" x="9" y="9" width="38" height="38">
<path d="M9.625 28C9.625 19.3379 9.625 15.0069 12.316 12.316C15.0069 9.625 19.3379 9.625 28 9.625C36.6621 9.625 40.9931 9.625 43.684 12.316C46.375 15.0069 46.375 19.3379 46.375 28C46.375 36.6621 46.375 40.9931 43.684 43.684C40.9931 46.375 36.6621 46.375 28 46.375C19.3379 46.375 15.0069 46.375 12.316 43.684C9.625 40.9931 9.625 36.6621 9.625 28Z" fill="#FFCC00"/>
</mask>
<g mask="url(#mask0)">
<path d="M35.4287 16.2927L37.7011 8.94434H35.7403L33.4668 16.2927H35.4287Z" fill="#292929"/>
<path d="M29.4979 16.2927L31.7715 8.94434H29.8106L27.5371 16.2927H29.4979Z" fill="#292929"/>
<path d="M18.6542 34.7011C18.1012 34.5417 17.5149 34.5378 16.9599 34.6899C15.9853 34.9144 15.2656 36.1969 15.2656 38.0558C15.2656 39.9147 15.8436 40.9288 16.623 41.3767C17.213 41.5743 17.8487 41.5899 18.4477 41.4216C19.1265 41.2487 20.1419 39.9147 20.1419 38.0558C20.1419 36.1969 19.5753 34.9783 18.6542 34.7011Z" fill="#292929"/>
<path d="M36.808 34.7011C36.2647 34.5417 35.6876 34.5378 35.1422 34.6899C34.1841 34.9144 33.4766 36.1969 33.4766 38.0558C33.4766 39.9147 34.0448 40.9288 34.8111 41.3767C35.3904 41.5742 36.0164 41.5899 36.6049 41.4216C37.2724 41.2487 38.2706 39.9147 38.2706 38.0558C38.2706 36.1969 37.7135 34.9783 36.808 34.7011Z" fill="#292929"/>
<path d="M36.7956 15.198C36.8042 15.1979 24.1207 15.1978 24.1207 15.1978C21.0736 15.1978 20.0158 18.6113 20.0158 18.6113C20.0158 18.6113 16.3926 30.3465 15.0587 34.6267C13.7249 38.9069 18.416 40.6006 19.6039 40.6006C21.2424 40.6006 32.8211 40.5993 32.848 40.5983C34.0576 40.5983 34.8405 39.7038 34.8405 37.894C34.8405 35.769 35.9691 34.6947 36.7682 34.7294C37.0442 34.7752 37.2942 34.9198 37.4715 35.1362C38.6569 31.2765 41.6162 21.8757 41.7274 21.434C43.1198 17.4534 39.0038 15.198 36.7956 15.198Z" fill="url(#paint0_linear)"/>
<path d="M38.0638 16.4205C37.882 16.4111 37.7024 16.4627 37.5533 16.567C37.4041 16.6713 37.2941 16.8224 37.2407 16.9963L31.9743 33.1474L31.964 33.1841C31.8455 33.7534 31.6327 34.299 31.3344 34.7981C30.9962 35.1657 31.1452 35.8061 32.727 35.4303C34.3089 35.0546 34.4811 34.0757 35.1697 31.9708C35.7677 30.1431 38.6294 21.135 39.3728 18.7942C39.462 18.5322 39.4964 18.2545 39.4737 17.9787C39.451 17.7028 39.3718 17.4345 39.241 17.1905C39.1274 16.9719 38.9595 16.7861 38.7533 16.6513C38.5471 16.5164 38.3096 16.4369 38.0638 16.4205Z" fill="url(#paint1_linear)"/>
<path d="M31.7739 18.689C31.4565 19.4418 27.3988 32.4264 27.1847 33.0994C26.9705 33.7725 27.8911 33.9831 27.8911 33.9831L32.9169 17.9799L32.9273 17.9467L32.8934 17.9497C32.6506 17.9277 32.4075 17.9889 32.2041 18.1232C32.0007 18.2576 31.849 18.4571 31.7739 18.689Z" fill="url(#paint2_linear)"/>
<path d="M28.6519 17.9482C28.3095 18.0151 27.816 17.9378 27.4986 18.6906C27.1812 19.4434 23.1234 32.4279 22.9093 33.101C22.6951 33.7741 23.6157 33.9847 23.6157 33.9847L28.6519 17.9482Z" fill="url(#paint3_linear)"/>
<path d="M24.2008 17.947C23.9531 17.9232 23.7046 17.9835 23.4954 18.1182C23.2861 18.2528 23.1283 18.454 23.0474 18.6893C22.73 19.4421 18.6723 32.4266 18.4581 33.0997C18.2439 33.7728 19.1645 33.9834 19.1645 33.9834L24.2008 17.947Z" fill="url(#paint4_linear)"/>
</g>
<defs>
<linearGradient id="paint0_linear" x1="28.4155" y1="40.4156" x2="28.4155" y2="15.0127" gradientUnits="userSpaceOnUse">
<stop offset="0.0852" stop-color="#C70100"/>
<stop offset="0.19477" stop-color="#E11C1B"/>
<stop offset="0.97902" stop-color="#E11C1B"/>
</linearGradient>
<linearGradient id="paint1_linear" x1="32.4569" y1="35.7856" x2="38.3848" y2="16.479" gradientUnits="userSpaceOnUse">
<stop stop-color="#E52F2D"/>
<stop offset="0.07468" stop-color="#E63634"/>
<stop offset="1" stop-color="#EF8883"/>
</linearGradient>
<linearGradient id="paint2_linear" x1="27.5564" y1="33.6148" x2="33.9171" y2="13.0239" gradientUnits="userSpaceOnUse">
<stop offset="0.02544" stop-color="#E52F2D"/>
<stop offset="0.51935" stop-color="#EA4A46"/>
<stop offset="1" stop-color="#EF6862"/>
</linearGradient>
<linearGradient id="paint3_linear" x1="92.5615" y1="372.968" x2="261.208" y2="176.366" gradientUnits="userSpaceOnUse">
<stop offset="0.02544" stop-color="#E52F2D"/>
<stop offset="0.51935" stop-color="#EA4A46"/>
<stop offset="1" stop-color="#EF6862"/>
</linearGradient>
<linearGradient id="paint4_linear" x1="65.9752" y1="354.08" x2="234.683" y2="157.469" gradientUnits="userSpaceOnUse">
<stop offset="0.02544" stop-color="#E52F2D"/>
<stop offset="0.51935" stop-color="#EA4A46"/>
<stop offset="1" stop-color="#EF6862"/>
</linearGradient>
</defs>
</svg>
