<svg width="56" height="56" viewBox="0 0 56 56" fill="none" xmlns="http://www.w3.org/2000/svg">
<rect width="56" height="56" fill="#F2F2F2"/>
<path fill-rule="evenodd" clip-rule="evenodd" d="M34.9672 44.8189C32.8214 45.7087 30.4684 46.1998 28.0008 46.1998C17.9492 46.1998 9.80078 38.0514 9.80078 27.9998C9.80078 17.9482 17.9492 9.7998 28.0008 9.7998C38.0524 9.7998 46.2008 17.9482 46.2008 27.9998C46.2008 30.4675 45.7097 32.8204 44.8199 34.9662C43.976 37.0014 44.3374 38.9989 44.4101 39.3451C44.4175 39.3807 44.4263 39.4154 44.4355 39.4506L45.8849 44.9922C46.0263 45.5326 45.5336 46.0253 44.9932 45.8839L39.4207 44.4265C39.4061 44.4227 39.3923 44.4191 39.3776 44.4157C39.149 44.3626 37.112 43.9295 34.9672 44.8189ZM36.401 28C36.401 32.6392 32.6401 36.4 28.001 36.4C23.3618 36.4 19.601 32.6392 19.601 28C19.601 23.3608 23.3618 19.6 28.001 19.6C32.6401 19.6 36.401 23.3608 36.401 28Z" fill="url(#paint0_angular)"/>
<defs>
<radialGradient id="paint0_angular" cx="0" cy="0" r="1" gradientUnits="userSpaceOnUse" gradientTransform="translate(28.0008 27.9998) rotate(45) scale(26.9143 27.7888)">
<stop stop-color="#4430F9"/>
<stop offset="0.510417" stop-color="#4D4DF9"/>
<stop offset="1" stop-color="#5767F9"/>
</radialGradient>
</defs>
</svg>
