<svg width="56" height="56" viewBox="0 0 56 56" fill="none" xmlns="http://www.w3.org/2000/svg">
<rect width="56" height="56" fill="#F2F2F2"/>
<path d="M43.2853 23.6016C40.2486 23.6016 39.7348 25.6842 38.3862 25.6842H33.5926C35.1155 24.1613 36.5696 22.7071 36.9871 22.2897C37.9458 21.3264 39.7899 22.4273 41.9229 20.2988C43.6431 18.5832 43.6385 15.7942 41.9229 14.074C40.2027 12.3538 37.4183 12.3538 35.6981 14.074C33.5513 16.2208 34.666 18.0557 33.7072 19.0098L30.3173 22.4044C30.3173 20.253 30.3173 18.1979 30.3173 17.6108C30.3127 16.2529 32.3999 15.7254 32.3999 12.7116C32.3999 10.2804 30.4274 8.3125 28.0008 8.3125C25.5695 8.3125 23.6016 10.285 23.6016 12.7116C23.6016 15.7483 25.6842 16.2621 25.6842 17.6108V22.4044C24.1613 20.8814 22.7071 19.4273 22.2897 19.0098C21.3264 18.0511 22.4273 16.2071 20.2989 14.074C18.5832 12.3538 15.7942 12.3584 14.074 14.074C12.3538 15.7942 12.3538 18.5786 14.074 20.2988C16.2208 22.4457 18.0557 21.331 19.0144 22.2897L22.4044 25.6796C20.253 25.6796 18.1933 25.6796 17.6062 25.6796C16.2484 25.6842 15.7208 23.597 12.7116 23.597C10.2804 23.597 8.3125 25.5695 8.3125 27.9962C8.3125 30.4228 10.2804 32.3953 12.7116 32.3953C15.7438 32.3953 16.2575 30.3127 17.6108 30.3127H22.4044C20.8814 31.8311 19.4273 33.2852 19.0144 33.7026C18.0557 34.666 16.2117 33.565 14.0786 35.6935C12.3584 37.4137 12.3584 40.1981 14.0786 41.9183C15.7988 43.6385 18.5832 43.6385 20.3034 41.9183C22.4502 39.7715 21.3401 37.9366 22.2943 36.9779L25.6796 33.5926C25.6796 35.7439 25.6796 37.8036 25.6796 38.3908C25.6842 39.7486 23.597 40.2761 23.597 43.2853C23.597 45.7165 25.5695 47.6844 27.9962 47.6844C30.4274 47.6844 32.3953 45.7165 32.3953 43.2853C32.3953 40.2532 30.3127 39.7394 30.3127 38.3862V33.5971C31.8311 35.1201 33.2852 36.5742 33.7026 36.9871C34.666 37.9458 33.565 39.7899 35.6935 41.9229C37.4137 43.6431 40.1981 43.6431 41.9183 41.9229C43.6385 40.2027 43.6385 37.4183 41.9183 35.6981C39.7715 33.5513 37.9366 34.6614 36.9779 33.7072L33.5926 30.3219C35.7439 30.3219 37.799 30.3219 38.3862 30.3219C39.744 30.3173 40.2715 32.4045 43.2853 32.4045C45.7165 32.4045 47.6844 30.432 47.6844 28.0053C47.6844 25.5787 45.7119 23.6016 43.2853 23.6016ZM28.0833 28.2439H27.909L27.753 28.0879V27.8998L27.8861 27.7668H28.1063L28.2301 27.8907V28.0971L28.0833 28.2439Z" fill="#FFCC00"/>
<path fill-rule="evenodd" clip-rule="evenodd" d="M28.0963 35.877C32.344 35.877 35.8716 32.3494 35.8716 28.1017C35.8716 23.6475 32.344 20.1245 28.0963 20.1245C23.6421 20.1245 20.1191 23.6521 20.1191 28.1017C20.1191 32.3494 23.6467 35.877 28.0963 35.877Z" fill="#FF0000"/>
</svg>
