<svg width="56" height="56" viewBox="0 0 56 56" fill="none" xmlns="http://www.w3.org/2000/svg">
<rect width="56" height="56" fill="#F2F2F2"/>
<path d="M33.884 22.2068V8.3999C33.884 8.3999 16.4736 18.8019 15.2177 19.5571C13.9617 20.3123 12.5996 22.1279 12.5996 24.7171C12.5996 24.7171 12.6487 41.0344 12.6487 42.2896C12.6487 43.5447 13.936 44.7999 15.2723 44.7999H40.9996C41.5519 44.7999 41.9996 44.3522 41.9996 43.7999V23.2068C41.9996 22.6545 41.5519 22.2068 40.9996 22.2068H33.884Z" fill="#FFCC00"/>
<path d="M33.884 22.2068V8.3999C33.884 8.3999 16.4736 18.8019 15.2177 19.5571C13.9617 20.3123 12.5996 22.1279 12.5996 24.7171C12.5996 24.7171 12.6487 41.0344 12.6487 42.2896C12.6487 43.5447 13.936 44.7999 15.2723 44.7999H40.9996C41.5519 44.7999 41.9996 44.3522 41.9996 43.7999V23.2068C41.9996 22.6545 41.5519 22.2068 40.9996 22.2068H33.884Z" fill="url(#paint0_linear)" fill-opacity="0.4"/>
<path d="M29.4206 22.3569C29.3955 23.7117 28.1461 25.3578 26.6951 25.9589C25.2441 26.561 24.0373 25.9153 24.0625 24.5615C24.0896 23.1033 25.337 21.5606 26.788 20.9595C28.239 20.3584 29.4458 21.0031 29.4206 22.3569Z" fill="#222222"/>
<path d="M33.8837 22.207H41.7812V37.1873L16.8777 42.168C16.605 42.2226 16.4604 41.8579 16.6964 41.7108L33.8837 30.9932V22.207Z" fill="url(#paint1_linear)"/>
<defs>
<linearGradient id="paint0_linear" x1="17.4997" y1="18.8121" x2="33.2497" y2="45.0621" gradientUnits="userSpaceOnUse">
<stop stop-color="white"/>
<stop offset="1" stop-color="white" stop-opacity="0"/>
</linearGradient>
<linearGradient id="paint1_linear" x1="43.0937" y1="31.9373" x2="17.5" y2="41.7811" gradientUnits="userSpaceOnUse">
<stop stop-color="#F0B200" stop-opacity="0"/>
<stop offset="0.431445" stop-color="#F0B200"/>
</linearGradient>
</defs>
</svg>
