<svg width="56" height="56" viewBox="0 0 56 56" fill="none" xmlns="http://www.w3.org/2000/svg">
<rect width="56" height="56" fill="#F2F2F2"/>
<path d="M28.0007 43.1663C19.6243 43.1663 12.834 36.376 12.834 27.9997C12.834 19.6234 19.6243 12.833 28.0007 12.833C36.377 12.833 43.1673 19.6234 43.1673 27.9997C43.1673 36.376 36.377 43.1663 28.0007 43.1663ZM21.8127 23.8043V23.9593C21.8127 24.3781 22.1522 24.7177 22.571 24.7177H24.083C24.501 24.7177 24.8398 24.3788 24.8398 23.9609C24.8398 22.0036 26.3534 20.9598 28.389 20.9598C30.3723 20.9598 31.6771 22.0036 31.6771 23.4911C31.6771 24.9003 30.9464 25.5527 29.1197 26.3878L28.5977 26.6227C27.058 27.3012 26.4839 28.319 26.4839 30.0935V30.2747C26.4839 30.6935 26.8234 31.033 27.2423 31.033H28.7543C29.1723 31.033 29.5111 30.6942 29.5111 30.2762C29.5111 29.4933 29.7199 29.1802 30.3462 28.8931L30.8681 28.6582C33.0602 27.6666 34.7043 26.3617 34.7043 23.5172V23.3606C34.7043 20.3595 32.0947 18.1413 28.389 18.1413C24.6311 18.1413 21.8127 20.3074 21.8127 23.8043ZM25.7257 35.5699C25.7257 36.8849 26.7251 37.858 27.9875 37.858C29.2762 37.858 30.2757 36.8849 30.2757 35.5699C30.2757 34.2548 29.2762 33.308 27.9875 33.308C26.7251 33.308 25.7257 34.2548 25.7257 35.5699Z" fill="#727783"/>
</svg>
