<svg width="16" height="16" viewBox="0 0 16 16" fill="none" xmlns="http://www.w3.org/2000/svg">
<path d="M0 4C0 1.79086 1.79086 0 4 0H12C14.2091 0 16 1.79086 16 4V12C16 14.2091 14.2091 16 12 16H4C1.79086 16 0 14.2091 0 12V4Z" fill="#222222"/>
<path d="M5.93431 13C5.31144 13 5 12.6823 5 12.04V3.94891C5 3.3163 5.3163 3 5.9489 3H8.46715C9.59611 3 10.4672 3.28224 11.0803 3.84672C11.6934 4.41119 12 5.19951 12 6.21168C12 7.22385 11.6934 8.01703 11.0803 8.59124C10.4672 9.15572 9.59611 9.43796 8.46715 9.43796H6.86861V12.04C6.86861 12.6823 6.55718 13 5.93431 13ZM6.86861 7.9635H8.17518C9.51825 7.9635 10.1898 7.37956 10.1898 6.21168C10.1898 5.05353 9.51825 4.47445 8.17518 4.47445H6.86861V7.9635Z" fill="white"/>
</svg>
