<svg width="32" height="32" viewBox="0 0 32 32" fill="none" xmlns="http://www.w3.org/2000/svg">
<path fill-rule="evenodd" clip-rule="evenodd" d="M9.70404 10.8603C10.4867 10.0776 11.54 9.75 12.625 9.75C14.2024 9.75 15.312 10.592 15.9999 11.75C16.6837 10.5934 17.7861 9.75 19.375 9.75C20.46 9.75 21.5133 10.0776 22.296 10.8603C23.0812 11.6455 23.5 12.7946 23.5 14.25C23.5 16.3307 22.2413 18.2657 20.807 19.7724C19.3541 21.2987 17.5984 22.5998 16.3455 23.25H15.6545C14.4016 22.5998 12.6459 21.2987 11.193 19.7724C9.75875 18.2657 8.5 16.3307 8.5 14.25C8.5 12.7946 8.91882 11.6455 9.70404 10.8603ZM10.7647 11.921C10.3312 12.3545 10 13.0804 10 14.25C10 15.7468 10.9313 17.3218 12.2795 18.7382C13.4776 19.9969 14.9108 21.1337 16 21.75C17.0892 21.1337 18.5224 19.9969 19.7205 18.7382C21.0687 17.3218 22 15.7468 22 14.25C22 13.0804 21.6688 12.3545 21.2353 11.921C20.7992 11.4849 20.165 11.25 19.375 11.25C18.0079 11.25 17.125 12.375 16.75 13.875L15.2786 13.8722C14.875 12.375 13.9804 11.25 12.625 11.25C11.835 11.25 11.2008 11.4849 10.7647 11.921Z" fill="black"/>
</svg>
