<svg width="40" height="40" viewBox="0 0 40 40" fill="none" xmlns="http://www.w3.org/2000/svg">
<path fill-rule="evenodd" clip-rule="evenodd" d="M13.1577 8.36841C11.6462 8.36841 10.4209 9.59373 10.4209 11.1052V28.8947C10.4209 30.4062 11.6462 31.6316 13.1577 31.6316H15.2104C16.7219 31.6316 17.9472 30.4062 17.9472 28.8947V11.1053C17.9472 9.59373 16.7219 8.36841 15.2104 8.36841H13.1577ZM24.7895 8.36842C23.278 8.36842 22.0526 9.59374 22.0526 11.1053V28.8947C22.0526 30.4063 23.278 31.6316 24.7895 31.6316H26.8421C28.3536 31.6316 29.5789 30.4063 29.5789 28.8947V11.1053C29.5789 9.59375 28.3536 8.36842 26.8421 8.36842H24.7895Z" fill="white" fill-opacity="0.8"/>
</svg>
