<svg width="40" height="40" viewBox="0 0 40 40" fill="none" xmlns="http://www.w3.org/2000/svg">
<path d="M20 7.5H18.75L13.75 13.75H10C9.22865 13.75 8.84298 13.75 8.4465 13.8869C7.97996 14.048 7.43004 14.4791 7.16229 14.8938C6.93474 15.2461 6.86296 15.5382 6.71941 16.1224C6.40833 17.3885 6.25 18.6903 6.25 20C6.25 21.3097 6.40833 22.6115 6.71941 23.8776C6.86296 24.4618 6.93474 24.7539 7.16229 25.1062C7.43004 25.5209 7.97996 25.952 8.4465 26.1131C8.84298 26.25 9.22865 26.25 10 26.25H13.75L18.75 32.5H20C21.525 32.5 23.125 27.5 23.125 19.9787C23.125 12.4573 21.5917 7.5 20 7.5Z" fill="white" fill-opacity="0.8"/>
<path d="M26.25 19.9881C26.2475 18.6711 25.829 17.3886 25.0543 16.3235L27.076 14.8529C28.1606 16.344 28.7465 18.1396 28.75 19.9834C28.7535 21.8272 28.1744 23.625 27.0955 25.1202L25.0682 23.6573C25.8389 22.5893 26.2525 21.3052 26.25 19.9881Z" fill="white" fill-opacity="0.8"/>
<path d="M29.0977 13.3823C30.4922 15.2994 31.2455 17.608 31.25 19.9787C31.2545 22.3493 30.51 24.6607 29.1228 26.5831L31.1501 28.046C32.8455 25.6965 33.7555 22.8714 33.75 19.9739C33.7445 17.0765 32.8238 14.2549 31.1195 11.9117L29.0977 13.3823Z" fill="white" fill-opacity="0.8"/>
</svg>
