<svg width="40" height="40" viewBox="0 0 40 40" fill="none" xmlns="http://www.w3.org/2000/svg">
<path d="M22.5 7.5H23.75C25.3417 7.5 26.8 12.3611 26.8 20C26.8 20.8703 26.7802 21.7045 26.7429 22.4996L19.163 11.6712L22.5 7.5Z" fill="white" fill-opacity="0.8"/>
<path d="M15.6182 13.75H13.75C12.9787 13.75 12.593 13.75 12.1965 13.8869C11.73 14.048 11.18 14.4791 10.9123 14.8938C10.6847 15.2461 10.613 15.5382 10.4694 16.1224C10.1583 17.3885 10 18.6903 10 20C10 21.3097 10.1583 22.6115 10.4694 23.8776C10.613 24.4618 10.6847 24.7539 10.9123 25.1062C11.18 25.5209 11.73 25.952 12.1965 26.1131C12.593 26.25 12.9787 26.25 13.75 26.25H17.5L22.5 32.5H23.75C24.5753 32.5 25.4007 31.0762 25.9843 28.5587L28.75 32.5098H31.875L14.375 7.50977H11.25L15.6182 13.75Z" fill="white" fill-opacity="0.8"/>
</svg>
