<svg width="56" height="56" viewBox="0 0 56 56" fill="none" xmlns="http://www.w3.org/2000/svg">
<rect width="56" height="56" fill="#F2F2F2"/>
<path d="M16.6336 18.201C21.3825 21.2045 25.1713 22.7062 28 22.7062C30.8286 22.7062 34.6174 21.2045 39.3664 18.2011C39.3664 18.2011 39.3664 18.201 39.3664 18.201C39.3664 18.201 39.3664 18.201 39.3664 18.201C40.1511 17.7047 41.2051 17.9147 41.7207 18.6699C41.9029 18.9368 42 19.2492 42 19.5685V38.1103C42 39.6537 41.231 41.1034 39.9321 42.0084C34.9175 45.5028 30.9401 47.25 28 47.25C25.0599 47.25 21.0825 45.5028 16.0679 42.0084C14.769 41.1034 14 39.6537 14 38.1103L14 19.5685C14 18.6648 14.7611 17.9322 15.7 17.9322C16.0318 17.9322 16.3563 18.0257 16.6336 18.201ZM28 17.4125C23.5817 17.4125 20 15.4733 20 13.0812C20 10.6892 23.5817 8.75 28 8.75C32.4183 8.75 36 10.6892 36 13.0812C36 15.4733 32.4183 17.4125 28 17.4125Z" fill="url(#paint0_linear)"/>
<defs>
<linearGradient id="paint0_linear" x1="27.78" y1="66.1975" x2="63.8314" y2="39.9783" gradientUnits="userSpaceOnUse">
<stop offset="0.157842" stop-color="#C026FF"/>
<stop offset="0.842864" stop-color="#5526FF"/>
</linearGradient>
</defs>
</svg>
