<svg width="56" height="56" viewBox="0 0 56 56" fill="none" xmlns="http://www.w3.org/2000/svg">
<rect width="56" height="56" fill="#F2F2F2"/>
<path fill-rule="evenodd" clip-rule="evenodd" d="M21.7012 12.2002C21.7012 11.6479 22.1489 11.2002 22.7012 11.2002H41.7012C42.2535 11.2002 42.7012 11.6479 42.7012 12.2002V36.8736C42.7012 37.2714 42.2592 37.5099 41.9267 37.2915L32.4757 31.0842C32.309 30.9747 32.0933 30.9747 31.9267 31.0842L22.4757 37.2915C22.1432 37.5099 21.7012 37.2714 21.7012 36.8736V12.2002Z" fill="#FFCC00"/>
<path fill-rule="evenodd" clip-rule="evenodd" d="M13.3008 19.2002C13.3008 18.6479 13.7485 18.2002 14.3008 18.2002H33.3008C33.8531 18.2002 34.3008 18.6479 34.3008 19.2002V43.8736C34.3008 44.2714 33.8588 44.5099 33.5263 44.2915L24.0753 38.0842C23.9086 37.9747 23.6929 37.9747 23.5263 38.0842L14.0753 44.2915C13.7428 44.5099 13.3008 44.2714 13.3008 43.8736V19.2002Z" fill="#FF0000"/>
</svg>
