<svg width="56" height="56" viewBox="0 0 56 56" fill="none" xmlns="http://www.w3.org/2000/svg">
<rect width="56" height="56" fill="#F2F2F2"/>
<path fill-rule="evenodd" clip-rule="evenodd" d="M47.6875 33.25H14.0672C14.0672 33.25 11.1704 24.9267 10.9506 15.8768C10.9372 15.3241 11.3862 14.875 11.9392 14.875H42.7393C43.2957 14.875 43.7438 15.3263 43.7687 15.8821C44.0676 22.5477 47.6875 33.25 47.6875 33.25Z" fill="#E6E6E6"/>
<path fill-rule="evenodd" clip-rule="evenodd" d="M46.375 37.1875H13.0058C13.0058 37.1875 11.0901 25.1656 10.946 15.8752C10.9374 15.3226 11.3859 14.875 11.9387 14.875H42.7425C43.2977 14.875 43.7458 15.3246 43.7551 15.8797C43.8955 24.2506 46.375 37.1875 46.375 37.1875Z" fill="#CFCFCF"/>
<path fill-rule="evenodd" clip-rule="evenodd" d="M10.9375 41.9375C10.9375 42.2136 11.1614 42.4375 11.4375 42.4375H43.25C43.5261 42.4375 43.75 42.2136 43.75 41.9375V15.375C43.75 15.0989 43.5261 14.875 43.25 14.875H11.4375C11.1614 14.875 10.9375 15.0989 10.9375 15.375V41.9375Z" fill="url(#paint0_linear)"/>
<path fill-rule="evenodd" clip-rule="evenodd" d="M17.8127 12.25V12.25C18.7103 12.25 19.4379 12.9776 19.4379 13.8752V17.5575C19.4379 18.4551 18.7103 19.1827 17.8127 19.1827C16.9151 19.1827 16.1875 18.4551 16.1875 17.5575V13.8752C16.1875 12.9776 16.9151 12.25 17.8127 12.25V12.25Z" fill="black"/>
<path fill-rule="evenodd" clip-rule="evenodd" d="M37.1428 12.2559V12.2559C38.0404 12.2559 38.768 12.9835 38.768 13.8811V17.5634C38.768 18.4609 38.0404 19.1886 37.1428 19.1886C36.2452 19.1886 35.5176 18.4609 35.5176 17.5634V13.8811C35.5176 12.9835 36.2452 12.2559 37.1428 12.2559V12.2559Z" fill="black"/>
<path fill-rule="evenodd" clip-rule="evenodd" d="M26.8585 34.8985H18.5156V32.8302C19.5968 31.9909 20.5217 31.2475 21.2906 30.6C22.0594 29.9525 22.687 29.356 23.1736 28.8105C23.6601 28.2649 24.0174 27.7494 24.2457 27.2638C24.4739 26.7782 24.5881 26.2716 24.5881 25.744C24.5881 25.0965 24.3928 24.581 24.0024 24.1973C23.612 23.8136 23.0564 23.6218 22.3357 23.6218C21.687 23.6218 21.0713 23.7746 20.4887 24.0804C19.9061 24.3861 19.3625 24.7788 18.858 25.2584V23.1901C19.3385 22.7825 19.8731 22.4527 20.4617 22.2009C21.0503 21.9491 21.753 21.8232 22.5699 21.8232C23.2186 21.8232 23.8072 21.9132 24.3358 22.093C24.8643 22.2729 25.3118 22.5277 25.6782 22.8574C26.0446 23.1871 26.3269 23.5888 26.5251 24.0624C26.7233 24.536 26.8224 25.0666 26.8224 25.6541C26.8224 26.3016 26.6963 26.9101 26.444 27.4796C26.1917 28.0491 25.8164 28.6216 25.3178 29.1972C24.8193 29.7727 24.1946 30.3722 23.4438 30.9957C22.693 31.6192 21.8131 32.3086 20.804 33.064H26.8585V34.8985ZM36.869 31.1935C36.869 31.793 36.7549 32.3296 36.5267 32.8032C36.2984 33.2768 35.9771 33.6845 35.5627 34.0262C35.1482 34.3679 34.6497 34.6287 34.0671 34.8086C33.4845 34.9884 32.8448 35.0783 32.148 35.0783C31.2831 35.0783 30.5504 34.9734 29.9497 34.7636C29.3491 34.5538 28.8566 34.305 28.4722 34.0172V32.0029C28.8566 32.3266 29.3401 32.6263 29.9227 32.9021C30.5053 33.1779 31.205 33.3158 32.0219 33.3158C32.8748 33.3158 33.5265 33.1239 33.977 32.7403C34.4275 32.3566 34.6527 31.829 34.6527 31.1576C34.6527 30.4741 34.4425 29.9615 34.022 29.6198C33.6016 29.2781 32.9469 29.1072 32.058 29.1072H30.4723V27.2907H32.148C32.7607 27.2907 33.2622 27.1259 33.6526 26.7961C34.0431 26.4664 34.2383 25.9958 34.2383 25.3843C34.2383 24.8328 34.0521 24.3981 33.6797 24.0804C33.3073 23.7626 32.7727 23.6038 32.076 23.6038C31.3432 23.6038 30.7185 23.7357 30.202 23.9995C29.6854 24.2632 29.2049 24.575 28.7605 24.9347V22.9383C29.1809 22.6266 29.6704 22.3628 30.229 22.147C30.7876 21.9312 31.4813 21.8232 32.3102 21.8232C32.9349 21.8232 33.4995 21.9072 34.004 22.075C34.5085 22.2429 34.935 22.4767 35.2834 22.7765C35.6317 23.0762 35.902 23.4359 36.0942 23.8556C36.2864 24.2752 36.3825 24.7368 36.3825 25.2404C36.3825 25.6601 36.3135 26.0318 36.1753 26.3555C36.0372 26.6792 35.854 26.964 35.6257 27.2098C35.3975 27.4556 35.1362 27.6534 34.8419 27.8033C34.5476 27.9532 34.2383 28.0581 33.9139 28.1181C34.3103 28.166 34.6857 28.2709 35.0401 28.4328C35.3945 28.5947 35.7068 28.8045 35.9771 29.0623C36.2474 29.3201 36.4636 29.6288 36.6258 29.9885C36.788 30.3482 36.869 30.7499 36.869 31.1935Z" fill="white"/>
<defs>
<linearGradient id="paint0_linear" x1="35.7037" y1="14.875" x2="26.4358" y2="34.2589" gradientUnits="userSpaceOnUse">
<stop stop-color="#FF6666"/>
<stop offset="1" stop-color="#FF3333"/>
</linearGradient>
</defs>
</svg>
