<svg width="56" height="56" viewBox="0 0 56 56" fill="none" xmlns="http://www.w3.org/2000/svg">
<rect width="56" height="56" fill="#F2F2F2"/>
<mask id="mask0" mask-type="alpha" maskUnits="userSpaceOnUse" x="12" y="12" width="31" height="31">
<path d="M12.25 12.3047H42.6184V42.6726H12.25V12.3047Z" fill="white"/>
</mask>
<g mask="url(#mask0)">
<path fill-rule="evenodd" clip-rule="evenodd" d="M42.6185 27.4887C42.6185 35.8741 35.8201 42.6726 27.4348 42.6726C19.0484 42.6726 12.25 35.8741 12.25 27.4887C12.25 19.1021 19.0484 12.3047 27.4348 12.3047C35.8201 12.3047 42.6185 19.1021 42.6185 27.4887Z" fill="#FFCC00"/>
<path fill-rule="evenodd" clip-rule="evenodd" d="M42.6185 27.4887C42.6185 35.8741 35.8201 42.6726 27.4348 42.6726C19.0484 42.6726 12.25 35.8741 12.25 27.4887C12.25 19.1021 19.0484 12.3047 27.4348 12.3047C35.8201 12.3047 42.6185 19.1021 42.6185 27.4887Z" fill="url(#paint0_linear)" fill-opacity="0.4"/>
</g>
<path fill-rule="evenodd" clip-rule="evenodd" d="M26.365 22.6701C28.2122 23.9304 30.829 23.2471 32.2099 21.143C33.5909 19.0378 33.2132 16.3102 31.3661 15.0499C29.5189 13.7886 26.901 14.4729 25.5212 16.5782C24.1402 18.6823 24.5178 21.4099 26.365 22.6701Z" fill="#FF3333"/>
<path fill-rule="evenodd" clip-rule="evenodd" d="M17.3751 10.7539C20.364 29.3277 31.9951 28.0819 44.9241 21.0918C48.4335 18.9711 48.1689 23.568 46.5166 25.3233C43.4336 28.5979 31.1745 34.1639 31.6795 42.5228C31.8279 44.2802 31.6131 44.937 27.3894 45.0621C21.8291 45.0001 21.3241 43.6922 20.7682 42.5615C16.9753 34.8582 13.4117 23.0375 13.3574 13.0541C13.3873 10.3508 16.8945 8.2312 17.3751 10.7539Z" fill="#FF3333"/>
<defs>
<linearGradient id="paint0_linear" x1="38.5176" y1="15.8092" x2="18.3466" y2="42.5459" gradientUnits="userSpaceOnUse">
<stop stop-color="white"/>
<stop offset="1" stop-color="white" stop-opacity="0"/>
</linearGradient>
</defs>
</svg>
