<svg width="56" height="56" viewBox="0 0 56 56" fill="none" xmlns="http://www.w3.org/2000/svg">
<rect width="56" height="56" fill="#F2F2F2"/>
<path fill-rule="evenodd" clip-rule="evenodd" d="M12.25 34.5625H43.75V12.25H12.25V34.5625Z" fill="#FFCC00"/>
<path fill-rule="evenodd" clip-rule="evenodd" d="M12.25 34.5625H43.75V12.25H12.25V34.5625Z" fill="url(#paint0_linear)" fill-opacity="0.4"/>
<path fill-rule="evenodd" clip-rule="evenodd" d="M20.7812 43.7497H26.6875V32.7417H20.7812V43.7497Z" fill="#FFCC00"/>
<path fill-rule="evenodd" clip-rule="evenodd" d="M29.3125 36.531H35.2188V32.7417H29.3125V36.531Z" fill="#FFCC00"/>
<path fill-rule="evenodd" clip-rule="evenodd" d="M12.25 43.7497H18.1562V32.7417H12.25V43.7497Z" fill="#FFCC00"/>
<path fill-rule="evenodd" clip-rule="evenodd" d="M37.1875 34.5625L38.5 42.3853H45.0625L43.75 34.5625H37.1875Z" fill="#EFB30E"/>
<path fill-rule="evenodd" clip-rule="evenodd" d="M17.5 20.125H38.5V18.8125H17.5V20.125Z" fill="#151A1F"/>
<path fill-rule="evenodd" clip-rule="evenodd" d="M17.5 24.0625H38.5V22.75H17.5V24.0625Z" fill="#151A1F"/>
<path fill-rule="evenodd" clip-rule="evenodd" d="M17.5 28.0273H30.1477V26.7148H17.5V28.0273Z" fill="#151A1F"/>
<defs>
<linearGradient id="paint0_linear" x1="39.4962" y1="14.8249" x2="26.6826" y2="38.8027" gradientUnits="userSpaceOnUse">
<stop stop-color="white"/>
<stop offset="1" stop-color="white" stop-opacity="0"/>
</linearGradient>
</defs>
</svg>
