<svg width="56" height="56" viewBox="0 0 56 56" fill="none" xmlns="http://www.w3.org/2000/svg">
<rect width="56" height="56" fill="#F2F2F2"/>
<path fill-rule="evenodd" clip-rule="evenodd" d="M27.9999 9.84424L12.25 16.6891C12.25 30.8441 12.25 39.594 27.9999 46.5939C43.7497 39.594 43.7497 30.8441 43.7497 16.5981L27.9999 9.84424Z" fill="#DADADA"/>
<path fill-rule="evenodd" clip-rule="evenodd" d="M27.9999 9.84424L12.25 16.6891C12.25 30.8441 12.25 39.594 27.9999 46.5939C43.7497 39.594 43.7497 30.8441 43.7497 16.5981L27.9999 9.84424Z" fill="url(#paint0_linear)"/>
<path d="M23.5315 32.4686C17.7793 26.7164 18.1481 22.2734 20.7776 20.3012C20.9694 20.1574 21.1584 20.0165 21.3448 19.8785L21.3448 19.8785C21.9637 19.4201 22.837 19.5502 23.2954 20.1691C23.3038 20.1805 23.3121 20.1919 23.3201 20.2035L24.7813 22.3071C25.1881 22.8926 25.0877 23.6907 24.5485 24.1573L23.2251 25.3023C22.7791 25.6881 22.6241 26.3127 22.8378 26.8623C23.2654 27.9618 24.1474 29.1798 25.4838 30.5162C26.8201 31.8525 28.0377 32.7342 29.1368 33.1615L29.1368 33.1615C29.6863 33.3751 30.3109 33.2201 30.6966 32.7742L31.8418 31.4506C32.3083 30.9114 33.1064 30.811 33.692 31.2177L35.7982 32.6808C36.4307 33.1202 36.5873 33.9892 36.1479 34.6217C36.1401 34.6329 36.1321 34.644 36.124 34.655C35.9857 34.8421 35.8445 35.0317 35.7004 35.2239C33.7282 37.8535 29.2836 38.2207 23.5315 32.4686Z" fill="white"/>
<defs>
<linearGradient id="paint0_linear" x1="43.7497" y1="30.8441" x2="12.25" y2="17.7192" gradientUnits="userSpaceOnUse">
<stop stop-color="#71B732"/>
<stop offset="1" stop-color="#C2DF12"/>
</linearGradient>
</defs>
</svg>
