<svg width="56" height="56" viewBox="0 0 56 56" fill="none" xmlns="http://www.w3.org/2000/svg">
<rect width="56" height="56" fill="#F2F2F2"/>
<path fill-rule="evenodd" clip-rule="evenodd" d="M33.1053 24.7274L40.2237 21.4658C40.2237 27.1759 36.301 33.0756 32.821 38.6957L26.8555 47.5996L29.4655 31.3427L33.1053 24.7274Z" fill="#E00000"/>
<path fill-rule="evenodd" clip-rule="evenodd" d="M27.8137 33.2266C34.6694 33.2266 40.2271 27.6689 40.2271 20.8132C40.2271 13.9575 34.6694 8.3999 27.8137 8.3999C20.958 8.3999 15.4004 13.9575 15.4004 20.8132C15.4004 27.6689 20.958 33.2266 27.8137 33.2266Z" fill="#FF3333"/>
<path fill-rule="evenodd" clip-rule="evenodd" d="M27.8146 26.0398C30.7012 26.0398 33.0412 23.6997 33.0412 20.8131C33.0412 17.9265 30.7012 15.5864 27.8146 15.5864C24.928 15.5864 22.5879 17.9265 22.5879 20.8131C22.5879 23.6997 24.928 26.0398 27.8146 26.0398Z" fill="white"/>
</svg>
