<svg width="56" height="56" viewBox="0 0 56 56" fill="none" xmlns="http://www.w3.org/2000/svg">
<rect width="56" height="56" fill="#F2F2F2"/>
<path fill-rule="evenodd" clip-rule="evenodd" d="M36.0554 12.4163C33.089 12.7232 17.0882 14.5434 17.0882 14.5434C14.2887 15.0471 12.1524 17.4202 11.8546 20.3554C11.2004 23.0565 10.2958 35.1912 10.2958 35.1912C10.0499 39.1526 12.942 42.5705 16.7566 42.8235C16.8829 42.8328 17.0115 42.8375 17.1378 42.8375L38.3699 42.8399C42.6966 42.8914 46.9625 39.422 46.3083 34.9359L43.8539 18.4673C43.0824 14.7051 39.7482 12.1188 36.0554 12.4163Z" fill="#662FFF"/>
<path fill-rule="evenodd" clip-rule="evenodd" d="M33.6963 15.9163C31.4766 16.1342 19.5138 17.5913 19.5138 17.5913C17.0324 17.9169 16.139 19.5169 15.5164 22.047C15.0269 23.9702 14.4359 32.1975 14.4359 32.1975C14.3231 35.0813 16.4797 37.5152 19.2544 37.6347C19.3536 37.6371 19.4529 37.6394 19.5521 37.6371H35.4266C38.6615 37.6722 41.9325 35.2078 41.4452 32.0171L39.5255 20.3041C38.8848 17.5515 36.4124 15.6914 33.6963 15.9163Z" fill="#7461FF"/>
<path fill-rule="evenodd" clip-rule="evenodd" d="M41.4438 32.0177L40.0226 23.3454C39.4564 21.1503 37.4645 19.6862 35.2853 19.8642C33.4694 20.0423 23.9091 21.2347 23.9091 21.2347C21.8765 21.5017 21.1434 22.8089 20.6358 24.8798C20.2365 26.454 19.7515 33.1867 19.7515 33.1867C19.659 35.548 21.4231 37.5369 23.6948 37.6353C23.7737 37.6377 23.8549 37.6377 23.9361 37.6377H35.4252C38.6623 37.6728 41.9333 35.2084 41.4438 32.0177Z" fill="#ADA0FF"/>
<path fill-rule="evenodd" clip-rule="evenodd" d="M41.3396 31.3911C41.2516 30.8547 40.5636 26.6778 40.5636 26.6778C40.1372 25.1082 38.7092 24.0658 37.1437 24.1782C35.8353 24.3305 28.7406 25.1972 28.7406 25.1972C27.5135 25.4292 26.575 26.4623 26.4261 27.7484C26.1757 28.9197 25.7223 34.2725 25.7223 34.2725C25.6411 36.0459 26.9585 37.5545 28.6639 37.6389C28.77 37.6459 28.876 37.6459 28.9798 37.6389H35.9684C40.2365 37.6389 42.3006 35.8187 41.3396 31.3911Z" fill="white"/>
</svg>
