<svg width="56" height="56" viewBox="0 0 56 56" fill="none" xmlns="http://www.w3.org/2000/svg">
<rect width="56" height="56" fill="#F2F2F2"/>
<circle cx="36.5312" cy="40.4688" r="5.90625" fill="#FFCC00"/>
<rect x="9.625" y="16.1875" width="36.75" height="23.625" fill="#FF3333"/>
<circle cx="18.1562" cy="14.2188" r="5.90625" fill="#FFCC00"/>
<circle cx="18.1562" cy="14.2188" r="5.90625" fill="url(#paint0_linear)" fill-opacity="0.4"/>
<path fill-rule="evenodd" clip-rule="evenodd" d="M27.5234 26.8516C26.9712 26.8516 26.5234 26.4038 26.5234 25.8516V25.5547C26.5234 25.0024 26.9712 24.5547 27.5234 24.5547H31.1172V20.9609C31.1172 20.4087 31.5649 19.9609 32.1172 19.9609H32.4141C32.9663 19.9609 33.4141 20.4087 33.4141 20.9609V25.3516C33.4141 26.18 32.7425 26.8516 31.9141 26.8516H27.5234ZM41.6016 29.1484C42.1538 29.1484 42.6016 29.5962 42.6016 30.1484V30.4453C42.6016 30.9976 42.1538 31.4453 41.6016 31.4453H38.0078V35.0391C38.0078 35.5913 37.5601 36.0391 37.0078 36.0391H36.7109C36.1587 36.0391 35.7109 35.5913 35.7109 35.0391V30.6484C35.7109 29.82 36.3825 29.1484 37.2109 29.1484H41.6016ZM41.2236 33.2828C40.4624 33.2828 39.8454 33.8998 39.8454 34.6609C39.8454 35.422 40.4624 36.039 41.2236 36.039C41.9847 36.039 42.6017 35.422 42.6017 34.6609C42.6017 33.8998 41.9847 33.2828 41.2236 33.2828ZM26.5234 21.3391C26.5234 20.5779 27.1404 19.9609 27.9016 19.9609C28.6627 19.9609 29.2797 20.5779 29.2797 21.3391C29.2797 22.1002 28.6627 22.7172 27.9016 22.7172C27.1404 22.7172 26.5234 22.1002 26.5234 21.3391ZM35.7109 21.6836V25.1289C35.7109 26.0803 36.4822 26.8516 37.4336 26.8516H40.8789C41.8303 26.8516 42.6016 26.0803 42.6016 25.1289V21.6836C42.6016 20.7322 41.8303 19.9609 40.8789 19.9609H37.4336C36.4822 19.9609 35.7109 20.7322 35.7109 21.6836ZM26.5234 34.3164V30.8711C26.5234 29.9197 27.2947 29.1484 28.2461 29.1484H31.6914C32.6428 29.1484 33.4141 29.9197 33.4141 30.8711V34.3164C33.4141 35.2678 32.6428 36.0391 31.6914 36.0391H28.2461C27.2947 36.0391 26.5234 35.2678 26.5234 34.3164ZM38.0078 22.2578H40.3047V24.5547H38.0078V22.2578ZM31.1172 31.4453H28.8203V33.7422H31.1172V31.4453Z" fill="white"/>
<defs>
<linearGradient id="paint0_linear" x1="22.4673" y1="9.67568" x2="14.6212" y2="20.0756" gradientUnits="userSpaceOnUse">
<stop stop-color="white"/>
<stop offset="1" stop-color="white" stop-opacity="0"/>
</linearGradient>
</defs>
</svg>
