<svg width="56" height="56" viewBox="0 0 56 56" fill="none" xmlns="http://www.w3.org/2000/svg">
<rect width="56" height="56" fill="#F2F2F2"/>
<path fill-rule="evenodd" clip-rule="evenodd" d="M13.0222 37.3839C5.99686 30.345 18.1315 10.9346 28.1373 10.9346C38.356 10.9346 49.2133 31.4115 43.4653 37.3839C42.188 38.6637 40.6977 39.5169 38.7817 40.3701C42.6137 35.8908 35.1626 22.2395 28.1373 22.2395C21.112 22.2395 12.8093 35.4642 17.4929 40.3701C15.7897 39.7302 14.2995 38.6637 13.0222 37.3839ZM22.8154 43.1423C20.4736 40.796 24.5185 34.397 27.9247 34.397C31.331 34.397 35.8016 40.3694 33.0341 43.1423C30.2665 45.9152 25.1572 45.4886 22.8154 43.1423Z" fill="#405DFF"/>
<path fill-rule="evenodd" clip-rule="evenodd" d="M13.0222 37.3839C5.99686 30.345 18.1315 10.9346 28.1373 10.9346C38.356 10.9346 49.2133 31.4115 43.4653 37.3839C42.188 38.6637 40.6977 39.5169 38.7817 40.3701C42.6137 35.8908 35.1626 22.2395 28.1373 22.2395C21.112 22.2395 12.8093 35.4642 17.4929 40.3701C15.7897 39.7302 14.2995 38.6637 13.0222 37.3839ZM22.8154 43.1423C20.4736 40.796 24.5185 34.397 27.9247 34.397C31.331 34.397 35.8016 40.3694 33.0341 43.1423C30.2665 45.9152 25.1572 45.4886 22.8154 43.1423Z" fill="url(#paint0_radial)" fill-opacity="0.4"/>
<defs>
<radialGradient id="paint0_radial" cx="0" cy="0" r="1" gradientUnits="userSpaceOnUse" gradientTransform="translate(27.9993 26.6877) rotate(90.005) scale(18.3776 18.3762)">
<stop stop-color="white"/>
<stop offset="1" stop-color="white" stop-opacity="0"/>
</radialGradient>
</defs>
</svg>
