<svg width="56" height="56" viewBox="0 0 56 56" fill="none" xmlns="http://www.w3.org/2000/svg">
<rect width="56" height="56" fill="#F2F2F2"/>
<mask id="mask0" mask-type="alpha" maskUnits="userSpaceOnUse" x="9" y="10" width="23" height="31">
<path d="M29.6667 11.1433L13.4319 24.0091V24.0116C13.1127 24.2602 12.8054 24.5314 12.5146 24.8302C9.0678 28.3683 9.09667 34.0758 12.5789 37.5778C16.0607 41.0798 21.6772 41.0505 25.1239 37.5124C26.3944 36.2081 27.1909 34.609 27.518 32.9345H27.5197L27.5279 32.8888C27.5353 32.8456 27.5428 32.8025 27.5502 32.7597L31.1586 12.0638C31.2766 11.4304 30.7792 10.9371 30.2384 10.9375C30.0445 10.9375 29.8453 11.0008 29.6667 11.1433Z" fill="white"/>
</mask>
<g mask="url(#mask0)">
<path fill-rule="evenodd" clip-rule="evenodd" d="M29.6667 11.1433L13.4319 24.0091V24.0116C13.1127 24.2602 12.8054 24.5314 12.5146 24.8302C9.0678 28.3683 9.09667 34.0758 12.5789 37.5778C16.0607 41.0798 21.6772 41.0505 25.1239 37.5124C26.3944 36.2081 27.1909 34.609 27.518 32.9345H27.5197L27.5279 32.8888C27.5353 32.8456 27.5428 32.8025 27.5502 32.7597L31.1586 12.0638C31.2766 11.4304 30.7792 10.9371 30.2384 10.9375C30.0445 10.9375 29.8453 11.0008 29.6667 11.1433Z" fill="url(#paint0_linear)"/>
</g>
<mask id="mask1" mask-type="alpha" maskUnits="userSpaceOnUse" x="10" y="11" width="31" height="32">
<path d="M38.483 11.3089L16.445 22.0425C16.4445 22.0438 16.4445 22.0446 16.4445 22.0459C16.0122 22.2512 15.5882 22.4868 15.1765 22.7584C10.2964 25.9729 8.90507 32.5984 12.0684 37.5569C15.2318 42.5155 21.7516 43.9297 26.6322 40.7152C28.4302 39.5303 29.7535 37.8809 30.5508 36.0237L30.5529 36.0241L30.5735 35.973C30.5937 35.9256 30.6127 35.877 30.6317 35.8292L39.9828 12.7608C40.3128 11.9745 39.7073 11.1924 38.9697 11.1924C38.8109 11.1924 38.6459 11.2288 38.483 11.3089Z" fill="white"/>
</mask>
<g mask="url(#mask1)">
<path fill-rule="evenodd" clip-rule="evenodd" d="M38.483 11.3089L16.445 22.0425C16.4445 22.0438 16.4445 22.0446 16.4445 22.0459C16.0122 22.2512 15.5882 22.4868 15.1765 22.7584C10.2964 25.9729 8.90507 32.5984 12.0684 37.5569C15.2318 42.5155 21.7516 43.9297 26.6322 40.7152C28.4302 39.5303 29.7535 37.8809 30.5508 36.0237L30.5529 36.0241L30.5735 35.973C30.5937 35.9256 30.6127 35.877 30.6317 35.8292L39.9828 12.7608C40.3128 11.9745 39.7073 11.1924 38.9697 11.1924C38.8109 11.1924 38.6459 11.2288 38.483 11.3089Z" fill="url(#paint1_linear)"/>
</g>
<mask id="mask2" mask-type="alpha" maskUnits="userSpaceOnUse" x="9" y="16" width="38" height="28">
<path d="M44.9671 16.1933L19.0789 20.8794C19.0785 20.8803 19.0781 20.8819 19.0777 20.8824C18.5711 20.9695 18.065 21.0894 17.5614 21.2508C11.5918 23.1567 8.27295 29.6195 10.1494 35.6851C12.025 41.751 18.3851 45.1231 24.3547 43.2172C26.5549 42.5143 28.3929 41.1914 29.7459 39.4985L29.7475 39.4997L29.7838 39.4528C29.8181 39.4088 29.8515 39.3648 29.8853 39.3208L46.1114 18.1369C46.7483 17.3259 46.1485 16.1724 45.194 16.1724C45.1202 16.1724 45.0447 16.1791 44.9671 16.1933Z" fill="white"/>
</mask>
<g mask="url(#mask2)">
<path fill-rule="evenodd" clip-rule="evenodd" d="M44.9671 16.1933L19.0789 20.8794C19.0785 20.8803 19.0781 20.8819 19.0777 20.8824C18.5711 20.9695 18.065 21.0894 17.5614 21.2508C11.5918 23.1567 8.27295 29.6195 10.1494 35.6851C12.025 41.751 18.3851 45.1231 24.3547 43.2172C26.5549 42.5143 28.3929 41.1914 29.7459 39.4985L29.7475 39.4997L29.7838 39.4528C29.8181 39.4088 29.8515 39.3648 29.8853 39.3208L46.1114 18.1369C46.7483 17.3259 46.1485 16.1724 45.194 16.1724C45.1202 16.1724 45.0447 16.1791 44.9671 16.1933Z" fill="url(#paint2_linear)"/>
</g>
<defs>
<linearGradient id="paint0_linear" x1="8.80685" y1="30.5399" x2="32.2862" y2="27.7614" gradientUnits="userSpaceOnUse">
<stop stop-color="#D2E9FF"/>
<stop offset="1" stop-color="#D2E9FF"/>
</linearGradient>
<linearGradient id="paint1_linear" x1="10.373" y1="26.8357" x2="40.1013" y2="26.8357" gradientUnits="userSpaceOnUse">
<stop stop-color="#A3D2FF"/>
<stop offset="1" stop-color="#A3D2FF"/>
</linearGradient>
<linearGradient id="paint2_linear" x1="37.5893" y1="10.1428" x2="13.7723" y2="41.2456" gradientUnits="userSpaceOnUse">
<stop stop-color="#2ACDFF"/>
<stop offset="0.22258" stop-color="#34BBFF"/>
<stop offset="0.66845" stop-color="#4F8BFF"/>
<stop offset="1" stop-color="#6564FF"/>
</linearGradient>
</defs>
</svg>
