<svg width="56" height="56" viewBox="0 0 56 56" fill="none" xmlns="http://www.w3.org/2000/svg">
<rect width="56" height="56" fill="#F2F2F2"/>
<g clip-path="url(#clip0)">
<path d="M21.7501 12.7527L23.2917 14.8494C23.764 15.4855 24.3758 16.0304 25.1968 16.2503C26.0668 16.4835 26.9489 16.3405 27.6707 15.9212C28.3525 15.525 28.8386 14.8682 29.1412 14.0768L30.0901 11.6534C30.334 11.0304 31.0076 10.6906 31.6537 10.8647L32.5283 11.1003L33.4035 11.3335C34.051 11.5061 34.4646 12.1387 34.3628 12.8011L33.968 15.3702C33.841 16.213 33.9361 17.0292 34.333 17.7151C34.749 18.4342 35.4391 18.9948 36.3049 19.2268C37.1369 19.4497 37.9457 19.2693 38.6833 18.951L41.0352 17.9214C41.6477 17.6533 42.3639 17.8884 42.6982 18.4675L43.1503 19.2505L43.6058 20.0395C43.9404 20.6189 43.7855 21.3573 43.2463 21.7534L41.1518 23.2924C40.5169 23.7662 39.9719 24.3769 39.7521 25.1974C39.5189 26.0674 39.6619 26.9496 40.0812 27.6713C40.4772 28.3528 41.1336 28.8386 41.9244 29.1415L44.3483 30.0901C44.9717 30.3342 45.3115 31.0083 45.137 31.6546L44.9008 32.5291L44.668 33.4047C44.496 34.0519 43.8643 34.4658 43.2023 34.3651L40.6296 33.974C39.7888 33.841 38.9729 33.9369 38.2873 34.3336C37.5682 34.7497 37.0076 35.4397 36.7756 36.3055C36.5555 37.1272 36.7223 37.9299 37.0375 38.6577L38.0808 41.0386C38.3491 41.651 38.1143 42.3671 37.5355 42.7017L36.7492 43.1562L35.9603 43.6111C35.382 43.9446 34.6454 43.7908 34.2488 43.2537L32.765 41.2438C32.2705 40.5792 31.6626 39.9825 30.805 39.7527C29.9352 39.5196 29.0532 39.6624 28.3316 40.0816C27.6483 40.4784 27.1625 41.1374 26.8592 41.9307L25.9111 44.3513C25.6674 44.9736 24.9949 45.3134 24.3493 45.1404L23.4715 44.9052L22.5956 44.6705C21.9492 44.4973 21.5367 43.8656 21.6379 43.2041L22.0309 40.6369C22.1604 39.7915 22.0659 38.9726 21.6669 38.2847C21.2507 37.5672 20.5614 37.0079 19.6969 36.7763C18.846 36.5483 18.025 36.7519 17.2707 37.0782L14.9605 38.0869C14.347 38.3547 13.6303 38.118 13.2971 37.5375L12.8474 36.7544L12.3921 35.9701C12.0554 35.3902 12.2101 34.6497 12.7507 34.2529L14.8472 32.7147L14.8459 32.7124C15.4825 32.2385 16.0294 31.6277 16.2497 30.8056C16.4828 29.9358 16.34 29.0539 15.9208 28.3322C15.5247 27.6501 14.8674 27.164 14.0758 26.8611L11.6521 25.9124C11.0288 25.6684 10.689 24.9945 10.8634 24.3482L11.0988 23.4756L11.3321 22.599C11.5044 21.9513 12.1369 21.5375 12.7994 21.6391L15.3694 22.0331C16.2133 22.1619 17.031 22.0659 17.7177 21.6676C18.4352 21.2513 18.9945 20.562 19.2261 19.6975C19.4477 18.8704 19.2722 18.0655 18.957 17.3316L17.9187 14.9652C17.6493 14.3512 17.886 13.6328 18.4677 13.2992L19.2519 12.8496L20.0331 12.3955C20.6127 12.0586 21.353 12.2126 21.7501 12.7527ZM26.0597 35.2443C30.0607 36.3163 34.1733 33.942 35.2453 29.941C36.3174 25.94 33.943 21.8274 29.942 20.7554C25.941 19.6833 21.8285 22.0577 20.7564 26.0587C19.6844 30.0597 22.0587 34.1722 26.0597 35.2443Z" fill="#45474D"/>
</g>
<defs>
<clipPath id="clip0">
<rect width="42" height="42" fill="white" transform="translate(7 7)"/>
</clipPath>
</defs>
</svg>
