<svg width="56" height="56" viewBox="0 0 56 56" fill="none" xmlns="http://www.w3.org/2000/svg">
<rect width="56" height="56" fill="#F2F2F2"/>
<circle cx="17.5" cy="22.75" r="6.5625" fill="#FFCC00"/>
<circle cx="38.5" cy="22.75" r="7.875" fill="#FFCC00"/>
<path fill-rule="evenodd" clip-rule="evenodd" d="M17.1875 12C19.6908 12 21.9603 13.0012 23.6174 14.625H31.7576C33.4147 13.0012 35.6842 12 38.1875 12C43.2616 12 47.375 16.1134 47.375 21.1875C47.375 23.1953 46.731 25.0527 45.6382 26.5643C45.7355 27.0011 45.8227 27.4509 45.8984 27.9141C46.0797 29.0217 46.2892 29.8787 46.4693 30.6152L46.4693 30.6154L46.4693 30.6154L46.4694 30.6157C46.5633 30.9996 46.6491 31.3507 46.7188 31.6875C46.7893 32.0286 46.8572 32.3353 46.9209 32.6227C47.1846 33.8127 47.375 34.6724 47.375 36.2812C47.375 38.7422 44.8258 40.875 42.9453 40.875C39.1913 40.875 37.7676 37.5884 36.5293 34.7298L36.5293 34.7298C36.1981 33.9654 35.8803 33.2316 35.5347 32.5995C35.0311 31.6785 34.6455 30.9731 34.4141 30.7031C34.3531 30.632 34.2947 30.5622 34.2374 30.4937L34.2371 30.4933C34.0742 30.2986 33.9207 30.115 33.7451 29.9453C33.0004 29.4594 31.2874 28.7349 27.6915 28.7344H27.6875C24.0889 28.7344 22.3748 29.4592 21.6299 29.9453C21.4543 30.1151 21.3008 30.2986 21.1379 30.4933C21.0806 30.5619 21.022 30.6319 20.9609 30.7031C20.7295 30.9731 20.3439 31.6785 19.8403 32.5995C19.4947 33.2316 19.1769 33.9654 18.8458 34.7297L18.8457 34.7298C17.6074 37.5884 16.1837 40.875 12.4297 40.875C10.5492 40.875 8 38.7422 8 36.2812C8 34.6724 8.19045 33.8127 8.45408 32.6227L8.45409 32.6227C8.51776 32.3353 8.5857 32.0286 8.65625 31.6875C8.72592 31.3506 8.81179 30.9994 8.90567 30.6154C9.08575 29.8789 9.2953 29.0218 9.47656 27.9141C9.55234 27.4509 9.63954 27.0011 9.73682 26.5643C8.64405 25.0527 8 23.1953 8 21.1875C8 16.1134 12.1134 12 17.1875 12ZM15.875 17.25C15.875 16.5251 16.4626 15.9375 17.1875 15.9375C17.9124 15.9375 18.5 16.5251 18.5 17.25V19.875H21.125C21.8499 19.875 22.4375 20.4626 22.4375 21.1875C22.4375 21.9124 21.8499 22.5 21.125 22.5H18.5V25.125C18.5 25.8499 17.9124 26.4375 17.1875 26.4375C16.4626 26.4375 15.875 25.8499 15.875 25.125V22.5H13.25C12.5251 22.5 11.9375 21.9124 11.9375 21.1875C11.9375 20.4626 12.5251 19.875 13.25 19.875H15.875V17.25ZM40.4688 18.8125C40.4688 19.8998 39.5873 20.7812 38.5 20.7812C37.4127 20.7812 36.5312 19.8998 36.5312 18.8125C36.5312 17.7252 37.4127 16.8438 38.5 16.8438C39.5873 16.8438 40.4688 17.7252 40.4688 18.8125ZM34.5625 24.7188C35.6498 24.7188 36.5312 23.8373 36.5312 22.75C36.5312 21.6627 35.6498 20.7812 34.5625 20.7812C33.4752 20.7812 32.5938 21.6627 32.5938 22.75C32.5938 23.8373 33.4752 24.7188 34.5625 24.7188ZM44.4062 22.75C44.4062 23.8373 43.5248 24.7188 42.4375 24.7188C41.3502 24.7188 40.4688 23.8373 40.4688 22.75C40.4688 21.6627 41.3502 20.7812 42.4375 20.7812C43.5248 20.7812 44.4062 21.6627 44.4062 22.75ZM38.5 28.6562C39.5873 28.6562 40.4688 27.7748 40.4688 26.6875C40.4688 25.6002 39.5873 24.7188 38.5 24.7188C37.4127 24.7188 36.5312 25.6002 36.5312 26.6875C36.5312 27.7748 37.4127 28.6562 38.5 28.6562Z" fill="#444444"/>
</svg>
