<svg width="56" height="56" viewBox="0 0 56 56" fill="none" xmlns="http://www.w3.org/2000/svg">
<rect width="56" height="56" fill="#F2F2F2"/>
<mask id="mask0" mask-type="alpha" maskUnits="userSpaceOnUse" x="10" y="9" width="36" height="40">
<path d="M10.9375 9.625H45.0626V48.6239H10.9375V9.625Z" fill="white"/>
</mask>
<g mask="url(#mask0)">
<path fill-rule="evenodd" clip-rule="evenodd" d="M27.9993 9.62451L11.8164 19.4689V43.7502H21.4368V26.6877H34.5618V43.7502H44.1825V19.4689L27.9993 9.62451Z" fill="#FFCC00"/>
<path fill-rule="evenodd" clip-rule="evenodd" d="M27.9993 9.62451L11.8164 19.4689V43.7502H21.4368V26.6877H34.5618V43.7502H44.1825V19.4689L27.9993 9.62451Z" fill="url(#paint0_linear)" fill-opacity="0.4"/>
<path fill-rule="evenodd" clip-rule="evenodd" d="M21.4375 43.75L30.625 47.6875V30.625L21.4375 26.6875V43.75Z" fill="#EBA704"/>
<path fill-rule="evenodd" clip-rule="evenodd" d="M21.4375 43.75H12.25V30.9531L21.4375 26.6875V43.75Z" fill="url(#paint1_linear)"/>
</g>
<defs>
<linearGradient id="paint0_linear" x1="39.8118" y1="13.5627" x2="16.8431" y2="42.4377" gradientUnits="userSpaceOnUse">
<stop stop-color="white"/>
<stop offset="1" stop-color="white" stop-opacity="0"/>
</linearGradient>
<linearGradient id="paint1_linear" x1="24.0625" y1="33.9063" x2="14.2187" y2="34.5625" gradientUnits="userSpaceOnUse">
<stop stop-color="#EBA704"/>
<stop offset="1" stop-color="#EBA704" stop-opacity="0"/>
</linearGradient>
</defs>
</svg>
