<svg width="56" height="56" viewBox="0 0 56 56" fill="none" xmlns="http://www.w3.org/2000/svg">
<rect width="56" height="56" fill="#F2F2F2"/>
<path d="M27.7367 9.8877C28.1716 9.8877 28.5242 10.1895 28.5242 10.5618V13.0597H26.9492V10.5618C26.9492 10.1895 27.3018 9.8877 27.7367 9.8877Z" fill="black"/>
<path d="M26.9492 12.0024V26.8052H28.5242V12.0031L26.9492 12.0024Z" fill="black"/>
<path d="M11.1992 28.9199C11.1992 19.598 18.742 12.0024 27.9992 12.0024C37.2565 12.0024 44.7992 19.598 44.7992 28.9199H11.1992Z" fill="url(#paint0_linear)"/>
<path d="M27.9992 31.0345C37.2776 31.0345 44.7992 30.0878 44.7992 28.9199C44.7992 27.752 37.2776 26.8052 27.9992 26.8052C24.599 26.8052 21.4347 26.9323 18.7901 27.1509C14.2181 27.5288 11.1992 28.1799 11.1992 28.9199C11.1992 30.0878 18.7208 31.0345 27.9992 31.0345Z" fill="#E00000"/>
<path d="M28.5187 26.8071L28.5152 30.8926L28.4765 30.8933V39.6016C28.4765 39.695 28.479 39.8632 28.4864 40.0806C28.4989 40.4428 28.5213 40.8045 28.5558 41.139C28.5598 41.1778 28.5598 41.1778 28.564 41.2165C28.698 42.4296 29.5926 43.3684 31.1744 43.415C32.5003 43.454 33.4835 42.8188 33.7252 41.8368C33.7331 41.8039 33.7331 41.8039 33.7406 41.7703C33.7754 41.6094 33.7987 41.431 33.8116 41.2516C33.8194 41.1437 33.8219 41.0619 33.8219 41.0208V40.6485C33.8219 40.2721 34.1638 39.9669 34.5856 39.9669C35.0073 39.9669 35.3492 40.2721 35.3492 40.6485V41.0208C35.3492 41.0895 35.3458 41.2 35.3357 41.3394C35.3189 41.572 35.2885 41.8056 35.24 42.0294C35.229 42.0791 35.229 42.0791 35.2169 42.1293C34.8123 43.7732 33.1647 44.8377 31.124 44.7776C28.6932 44.706 27.2471 43.1886 27.0441 41.3502C27.0394 41.3071 27.0394 41.3071 27.0349 41.264C26.9972 40.8986 26.9732 40.5103 26.9599 40.1225C26.9519 39.8899 26.9492 39.7081 26.9492 39.6016V30.8926H26.992V26.8067C27.2311 26.8057 27.4714 26.8052 27.7129 26.8052C27.9829 26.8052 28.2515 26.8058 28.5187 26.8071Z" fill="black"/>
<defs>
<linearGradient id="paint0_linear" x1="23.254" y1="23.9142" x2="27.8637" y2="14.2087" gradientUnits="userSpaceOnUse">
<stop stop-color="#FF3333" stop-opacity="0.75"/>
<stop offset="1" stop-color="#FF3333"/>
</linearGradient>
</defs>
</svg>
