<svg width="56" height="56" viewBox="0 0 56 56" fill="none" xmlns="http://www.w3.org/2000/svg">
<rect width="56" height="56" fill="#F2F2F2"/>
<path d="M12.0527 28.9359L17.1324 37.7341C17.958 39.1641 19.1455 40.3516 20.5755 41.1772C22.0055 42.0028 23.6276 42.4374 25.2788 42.4374C26.93 42.4374 28.5522 42.0028 29.9822 41.1772C31.4122 40.3516 32.5996 39.1641 33.4253 37.7341L43.0768 20.9883L33.9005 14.5132L25.2784 29.4467L19.8758 20.0888L12.0527 28.9359Z" fill="url(#paint0_linear)"/>
<path d="M12.0527 28.9359L17.1324 37.7341C17.958 39.1641 19.1455 40.3516 20.5755 41.1772C22.0055 42.0028 23.6276 42.4374 25.2788 42.4374C26.93 42.4374 28.5522 42.0028 29.9822 41.1772C31.4122 40.3516 32.5996 39.1641 33.4253 37.7341L43.0768 20.9883L33.9005 14.5132L25.2784 29.4467L19.8758 20.0888L12.0527 28.9359Z" fill="url(#paint1_linear)"/>
<path d="M11.4414 27.8842L17.1322 37.7336C17.9578 39.1636 19.1453 40.3511 20.5753 41.1767C22.0053 42.0023 23.6274 42.437 25.2786 42.437C26.9298 42.437 28.552 42.0023 29.982 41.1767C31.412 40.3511 32.5995 39.1636 33.4251 37.7336L36.5854 32.2599C36.0948 33.1097 35.3891 33.8154 34.5392 34.306C33.6894 34.7967 32.7254 35.055 31.7441 35.055C30.7628 35.055 29.7988 34.7967 28.949 34.306C28.0992 33.8154 27.3935 33.1097 26.9028 32.2598L19.8756 20.0884L11.4414 27.8842Z" fill="url(#paint2_linear)"/>
<path d="M15.8987 18.4806L11.4461 26.1928C11.292 26.4596 11.2109 26.7623 11.2109 27.0704C11.2109 27.3785 11.292 27.6812 11.4461 27.948C11.6001 28.2149 11.8217 28.4364 12.0886 28.5905C12.3554 28.7445 12.6581 28.8256 12.9662 28.8256H21.8714C22.1795 28.8256 22.4822 28.7445 22.749 28.5905C23.0159 28.4364 23.2374 28.2149 23.3915 27.948C23.5456 27.6812 23.6267 27.3785 23.6267 27.0704C23.6267 26.7623 23.5456 26.4596 23.3915 26.1928L18.9389 18.4806C18.7848 18.2138 18.5632 17.9922 18.2964 17.8382C18.0296 17.6841 17.7269 17.603 17.4188 17.603C17.1107 17.603 16.808 17.6841 16.5412 17.8382C16.2744 17.9922 16.0528 18.2138 15.8987 18.4806Z" fill="#E80020"/>
<path d="M41.4315 23.8819L45.8731 16.1888C46.0268 15.9227 46.1077 15.6207 46.1077 15.3134C46.1077 15.006 46.0268 14.7041 45.8731 14.4379C45.7194 14.1718 45.4984 13.9507 45.2322 13.7971C44.9661 13.6434 44.6641 13.5625 44.3568 13.5625H35.4735C35.1662 13.5625 34.8643 13.6434 34.5981 13.7971C34.3319 13.9507 34.1109 14.1718 33.9572 14.4379C33.8036 14.7041 33.7227 15.006 33.7227 15.3134C33.7227 15.6207 33.8036 15.9227 33.9572 16.1888L38.3989 23.8819C38.5525 24.1481 38.7736 24.3691 39.0397 24.5228C39.3059 24.6765 39.6078 24.7574 39.9152 24.7574C40.2225 24.7574 40.5244 24.6765 40.7906 24.5228C41.0568 24.3691 41.2778 24.1481 41.4315 23.8819Z" fill="#FFAA00"/>
<path d="M41.4315 23.8819L45.8731 16.1888C46.0268 15.9227 46.1077 15.6207 46.1077 15.3134C46.1077 15.006 46.0268 14.7041 45.8731 14.4379C45.7194 14.1718 45.4984 13.9507 45.2322 13.7971C44.9661 13.6434 44.6641 13.5625 44.3568 13.5625H35.4735C35.1662 13.5625 34.8643 13.6434 34.5981 13.7971C34.3319 13.9507 34.1109 14.1718 33.9572 14.4379C33.8036 14.7041 33.7227 15.006 33.7227 15.3134C33.7227 15.6207 33.8036 15.9227 33.9572 16.1888L38.3989 23.8819C38.5525 24.1481 38.7736 24.3691 39.0397 24.5228C39.3059 24.6765 39.6078 24.7574 39.9152 24.7574C40.2225 24.7574 40.5244 24.6765 40.7906 24.5228C41.0568 24.3691 41.2778 24.1481 41.4315 23.8819Z" fill="url(#paint3_linear)"/>
<defs>
<linearGradient id="paint0_linear" x1="20.471" y1="37.2633" x2="35.3551" y2="11.4832" gradientUnits="userSpaceOnUse">
<stop offset="0.00037" stop-color="#FF0F01"/>
<stop offset="0.05704" stop-color="#FF2F01"/>
<stop offset="0.141" stop-color="#FF5701"/>
<stop offset="0.23041" stop-color="#FF7A00"/>
<stop offset="0.32476" stop-color="#FF9600"/>
<stop offset="0.4257" stop-color="#FFAC00"/>
<stop offset="0.53637" stop-color="#FFBB00"/>
<stop offset="0.66418" stop-color="#FFC400"/>
<stop offset="0.84861" stop-color="#FFC700"/>
</linearGradient>
<linearGradient id="paint1_linear" x1="26.3041" y1="27.3141" x2="35.2276" y2="32.4661" gradientUnits="userSpaceOnUse">
<stop stop-color="white"/>
<stop offset="0.01218" stop-color="white" stop-opacity="0.92719"/>
<stop offset="0.05147" stop-color="white" stop-opacity="0.71258"/>
<stop offset="0.09217" stop-color="white" stop-opacity="0.52216"/>
<stop offset="0.13335" stop-color="white" stop-opacity="0.36162"/>
<stop offset="0.17518" stop-color="white" stop-opacity="0.23066"/>
<stop offset="0.21786" stop-color="white" stop-opacity="0.12915"/>
<stop offset="0.2617" stop-color="white" stop-opacity="0.057"/>
<stop offset="0.30744" stop-color="white" stop-opacity="0.01401"/>
<stop offset="0.3582" stop-color="white" stop-opacity="0"/>
</linearGradient>
<linearGradient id="paint2_linear" x1="13.0072" y1="37.5236" x2="29.9705" y2="27.7298" gradientUnits="userSpaceOnUse">
<stop stop-color="#FFC503"/>
<stop offset="0.12212" stop-color="#FF9502"/>
<stop offset="0.28394" stop-color="#FF5B01"/>
<stop offset="0.42268" stop-color="#FF3101"/>
<stop offset="0.53118" stop-color="#FF1800"/>
<stop offset="0.59609" stop-color="#FF0E00"/>
</linearGradient>
<linearGradient id="paint3_linear" x1="39.9152" y1="11.7098" x2="39.9152" y2="29.3824" gradientUnits="userSpaceOnUse">
<stop stop-color="white" stop-opacity="0.4"/>
<stop offset="0.03406" stop-color="white" stop-opacity="0.5"/>
<stop offset="0.16956" stop-color="white" stop-opacity="0.35941"/>
<stop offset="0.32269" stop-color="white" stop-opacity="0.23027"/>
<stop offset="0.4805" stop-color="white" stop-opacity="0.129"/>
<stop offset="0.64271" stop-color="white" stop-opacity="0.05695"/>
<stop offset="0.81207" stop-color="white" stop-opacity="0.014"/>
<stop offset="1" stop-color="white" stop-opacity="0"/>
</linearGradient>
</defs>
</svg>
