<svg width="20" height="20" viewBox="0 0 20 20" fill="none" xmlns="http://www.w3.org/2000/svg">
<path d="M11.041 2.92164C11.041 3.44473 11.4225 3.83498 11.9533 3.83498H12.5423L15.1135 3.66061L13.098 5.57862L10.7092 7.9533C10.5267 8.12766 10.4438 8.35184 10.4438 8.59263C10.4438 9.15724 10.8253 9.56409 11.3893 9.56409C11.6464 9.56409 11.8704 9.46445 12.0529 9.29009L14.4334 6.90711L16.3411 4.88116L16.1669 7.47172V8.11936C16.1669 8.64245 16.5485 9.041 17.0793 9.041C17.6102 9.041 18 8.65075 18 8.11936V3.51116C18 2.55631 17.4443 2 16.4904 2L11.9533 2C11.4308 2 11.041 2.39024 11.041 2.92164ZM2 11.8806L2 16.4888C2 17.4437 2.55573 18 3.50959 18H8.04666C8.56921 18 8.95905 17.6015 8.95905 17.0784C8.95905 16.5553 8.5775 16.165 8.04666 16.165H7.45775L4.88647 16.3394L6.90202 14.4214L9.29082 12.0467C9.4733 11.8723 9.55625 11.6482 9.55625 11.3991C9.55625 10.8345 9.1747 10.4276 8.61068 10.4276C8.35355 10.4276 8.12131 10.5272 7.94712 10.7099L5.56662 13.0929L3.65889 15.1188L3.83307 12.5283L3.83307 11.8806C3.83307 11.3492 3.45153 10.959 2.92068 10.959C2.38984 10.959 2 11.3492 2 11.8806Z" fill="current"/>
</svg>
