<svg width="32" height="32" viewBox="0 0 32 32" fill="none" xmlns="http://www.w3.org/2000/svg">
<path d="M15.1929 4.63529C15.5231 3.96637 16.4769 3.96637 16.8071 4.63529L19.6112 10.3171C19.7423 10.5827 19.9957 10.7668 20.2888 10.8094L26.5591 11.7205C27.2973 11.8278 27.592 12.735 27.0579 13.2557L22.5207 17.6783C22.3086 17.8851 22.2118 18.183 22.2619 18.475L23.3329 24.7199C23.459 25.4551 22.6873 26.0157 22.0271 25.6686L16.4188 22.7202C16.1566 22.5823 15.8434 22.5823 15.5812 22.7202L9.97292 25.6686C9.31265 26.0157 8.54096 25.4551 8.66706 24.7199L9.73815 18.475C9.78822 18.183 9.69143 17.8851 9.47931 17.6783L4.94212 13.2557C4.40795 12.735 4.70271 11.8278 5.44091 11.7205L11.7112 10.8094C12.0043 10.7668 12.2577 10.5827 12.3888 10.3171L15.1929 4.63529Z" fill="current"/>
</svg>
