<svg width="32" height="32" viewBox="0 0 32 32" fill="none" xmlns="http://www.w3.org/2000/svg">
<path fill-rule="evenodd" clip-rule="evenodd" d="M20.6177 22.0319C19.078 23.2635 17.125 24 15 24C10.0294 24 6 19.9706 6 15C6 10.0294 10.0294 6 15 6C19.9706 6 24 10.0294 24 15C24 17.125 23.2635 19.078 22.0319 20.6177L25.5 24C25.8905 24.3905 25.8905 25.0237 25.5 25.4142C25.1095 25.8047 24.4763 25.8047 24.0858 25.4142L20.6177 22.0319ZM22 15C22 18.866 18.866 22 15 22C11.134 22 8 18.866 8 15C8 11.134 11.134 8 15 8C18.866 8 22 11.134 22 15Z" fill="current"/>
</svg>
