<svg width="24" height="24" viewBox="0 0 24 24" fill="none" xmlns="http://www.w3.org/2000/svg">
<rect width="24" height="24" fill="black" fill-opacity="0.01"/>
<path fill-rule="evenodd" clip-rule="evenodd" d="M20 5H18V3C18 2.44772 17.5523 2 17 2C16.4477 2 16 2.44772 16 3V5H14C13.4477 5 13 5.44772 13 6C13 6.55228 13.4477 7 14 7H16V9C16 9.55228 16.4477 10 17 10C17.5523 10 18 9.55228 18 9V7H20C20.5523 7 21 6.55228 21 6C21 5.44772 20.5523 5 20 5ZM9.6367 19.0221L6.466 20.9007C6.13544 21.0966 5.70481 20.9937 5.50417 20.6711C5.40836 20.517 5.37878 20.3322 5.42188 20.1569L6.28073 16.6644C6.34228 16.4141 6.25454 16.1513 6.05374 15.9844L3.24634 13.6517C2.95188 13.4071 2.91637 12.9757 3.16702 12.6883C3.28749 12.5501 3.4593 12.4644 3.64458 12.45L7.33789 12.1628C7.59918 12.1425 7.82696 11.9814 7.92816 11.7454L9.35412 8.41976C9.50341 8.07156 9.91361 7.90744 10.2703 8.05317C10.44 8.12248 10.5749 8.25416 10.6459 8.41976L12.0718 11.7454C12.173 11.9814 12.4008 12.1425 12.6621 12.1628L16.3554 12.45C16.7409 12.48 17.0285 12.8093 16.9978 13.1856C16.983 13.3664 16.8952 13.5341 16.7536 13.6517L13.9462 15.9844C13.7454 16.1513 13.6577 16.4141 13.7193 16.6644L14.5781 20.1569C14.6684 20.524 14.4367 20.8929 14.0607 20.981C13.8811 21.0231 13.6918 20.9942 13.534 20.9007L10.3633 19.0221C10.14 18.8899 9.85994 18.8899 9.6367 19.0221ZM12.0692 16.6237C11.9071 16 12.1381 15.3451 12.6668 14.9293L14 13.8809L12.2388 13.7513C11.5509 13.7007 10.9511 13.2993 10.6846 12.7112L10 11.2L9.31535 12.7112C9.04889 13.2993 8.44914 13.7007 7.76117 13.7513L6 13.8809L7.33316 14.9293C7.86186 15.3451 8.09287 16 7.93081 16.6237L7.52122 18.2L9.04345 17.3464C9.63125 17.0169 10.3687 17.0169 10.9565 17.3464L12.4788 18.2L12.0692 16.6237Z" fill="#444444"/>
</svg>
