<svg width="24" height="24" viewBox="0 0 24 24" fill="none" xmlns="http://www.w3.org/2000/svg">
<rect width="24" height="24" fill="black" fill-opacity="0.01"/>
<path fill-rule="evenodd" clip-rule="evenodd" d="M6.95026 20.8756L11.4788 18.127C11.7976 17.9335 12.1976 17.9335 12.5165 18.127L17.045 20.8756C17.2704 21.0125 17.5408 21.0547 17.7973 20.9931C18.3343 20.8642 18.6651 20.3244 18.5362 19.7873L17.3096 14.6773C17.2217 14.3111 17.347 13.9265 17.6338 13.6824L21.6434 10.2693C21.8455 10.0972 21.971 9.85186 21.9921 9.58724C22.0359 9.0367 21.6252 8.55484 21.0746 8.51098L15.7997 8.09075C15.4265 8.06102 15.1012 7.82534 14.9567 7.48L12.9201 2.61416C12.8187 2.37188 12.626 2.17921 12.3837 2.0778C11.8743 1.86457 11.2884 2.1047 11.0752 2.61416L9.03856 7.48C8.89402 7.82534 8.5687 8.06102 8.19552 8.09075L2.9206 8.51098C2.65599 8.53206 2.41061 8.65749 2.23854 8.85963C1.88056 9.28018 1.93128 9.91131 2.35183 10.2693L6.36146 13.6824C6.64824 13.9265 6.77355 14.3111 6.68564 14.6773L5.45901 19.7873C5.39746 20.0438 5.4397 20.3142 5.57654 20.5396C5.8631 21.0118 6.47813 21.1622 6.95026 20.8756ZM16.3374 12.1595C15.477 12.8918 15.1011 14.0455 15.3648 15.1441L16.0314 17.9208L13.5542 16.4173C12.5977 15.8367 11.3975 15.8367 10.441 16.4173L7.96388 17.9208L8.6304 15.1441C8.89412 14.0455 8.51821 12.8918 7.65784 12.1595L5.48838 10.3128L8.35435 10.0844C9.4739 9.99524 10.4499 9.2882 10.8835 8.25219L11.9976 5.59029L13.1118 8.25219C13.5454 9.2882 14.5213 9.99524 15.6409 10.0844L18.5069 10.3128L16.3374 12.1595Z" fill="#444444"/>
</svg>
