<svg width="24" height="24" viewBox="0 0 24 24" fill="none" xmlns="http://www.w3.org/2000/svg">
<rect width="24" height="24" fill="black" fill-opacity="0.01"/>
<path fill-rule="evenodd" clip-rule="evenodd" d="M18.6749 11H20.6689C21.0853 8.3956 21.0942 5.59276 20.7781 3C20.7781 3.03247 15.7761 4 12 4C8.22386 4 3.22186 3 3.22186 3C2.29053 10.639 4.18084 20.1016 11 20.94V18.9056C6.92971 18.1182 4.64137 12.4901 5.02216 5.34503C5.31094 5.39067 5.60656 5.43557 5.90761 5.47926C8.1477 5.80438 10.2342 6 12 6C13.7704 6 15.8753 5.808 18.0878 5.4921C18.3911 5.4488 18.6895 5.40404 18.9786 5.35877C19.0857 7.38702 18.9777 9.2928 18.6749 11ZM6.5 10.5L11.5 11L10.3889 9H8.16667L7.5 9.5L6.5 10.5ZM12.5 11L13.6111 9H15.8333L16.5 9.5L17.5 10.5L12.5 11ZM20.6569 19.2426L18.4142 17L20.6569 14.7574C21.0474 14.3668 21.0474 13.7337 20.6569 13.3431C20.2663 12.9526 19.6332 12.9526 19.2426 13.3431L17 15.5858L14.7574 13.3431C14.3668 12.9526 13.7337 12.9526 13.3431 13.3431C12.9526 13.7337 12.9526 14.3668 13.3431 14.7574L15.5858 17L13.3431 19.2426C12.9526 19.6332 12.9526 20.2663 13.3431 20.6569C13.7337 21.0474 14.3668 21.0474 14.7574 20.6569L17 18.4142L19.2426 20.6569C19.6332 21.0474 20.2663 21.0474 20.6569 20.6569C21.0474 20.2663 21.0474 19.6332 20.6569 19.2426Z" fill="#444444"/>
</svg>
