<svg width="24" height="24" viewBox="0 0 24 24" fill="none" xmlns="http://www.w3.org/2000/svg">
<rect width="24" height="24" fill="black" fill-opacity="0.01"/>
<path fill-rule="evenodd" clip-rule="evenodd" d="M4 4H20C21.1046 4 22 4.89543 22 6V18C22 19.1046 21.1046 20 20 20H4C2.89543 20 2 19.1046 2 18V6C2 4.89543 2.89543 4 4 4ZM13 11H15C15.5523 11 16 11.4477 16 12C16 12.5523 15.5523 13 15 13H13V15C13 15.5523 12.5523 16 12 16C11.4477 16 11 15.5523 11 15V13H9C8.44772 13 8 12.5523 8 12C8 11.4477 8.44772 11 9 11H11V9C11 8.44772 11.4477 8 12 8C12.5523 8 13 8.44772 13 9V11ZM4 18V6H20V18H4Z" fill="#444444"/>
</svg>
