<svg width="24" height="24" viewBox="0 0 24 24" fill="none" xmlns="http://www.w3.org/2000/svg">
<rect width="24" height="24" fill="black" fill-opacity="0.01"/>
<path fill-rule="evenodd" clip-rule="evenodd" d="M20 4V20C20 21.1046 19.1046 22 18 22H6C4.89543 22 4 21.1046 4 20V4C4 2.89543 4.89543 2 6 2H18C19.1046 2 20 2.89543 20 4ZM18 4V12.7295L15.4383 10.1678L10.5815 15.0246L8.61174 13.0549L6 15.6666V4H18ZM15.4383 12.9962L18 15.5579V20H6V18.495L8.61174 15.8833L10.5815 17.853L15.4383 12.9962ZM8 7.5C8 8.32843 8.67157 9 9.5 9C10.3284 9 11 8.32843 11 7.5C11 6.67157 10.3284 6 9.5 6C8.67157 6 8 6.67157 8 7.5Z" fill="#444444"/>
</svg>
