<svg width="24" height="24" viewBox="0 0 24 24" fill="none" xmlns="http://www.w3.org/2000/svg">
<rect width="24" height="24" fill="black" fill-opacity="0.01"/>
<path fill-rule="evenodd" clip-rule="evenodd" d="M20 4H4C2.89543 4 2 4.89543 2 6V18C2 19.1046 2.89543 20 4 20H20C21.1046 20 22 19.1046 22 18V6C22 4.89543 21.1046 4 20 4ZM4 18V6H20V18H4ZM14 8C13.4477 8 13 8.44772 13 9C13 9.55228 13.4477 10 14 10H17C17.5523 10 18 9.55228 18 9C18 8.44772 17.5523 8 17 8H14ZM6 13C6 12.4477 6.44772 12 7 12H10C10.5523 12 11 12.4477 11 13C11 13.5523 10.5523 14 10 14H7C6.44772 14 6 13.5523 6 13ZM14 12C13.4477 12 13 12.4477 13 13C13 13.5523 13.4477 14 14 14H17C17.5523 14 18 13.5523 18 13C18 12.4477 17.5523 12 17 12H14ZM6 9C6 8.44772 6.44772 8 7 8H10C10.5523 8 11 8.44772 11 9C11 9.55228 10.5523 10 10 10H7C6.44772 10 6 9.55228 6 9Z" fill="#444444"/>
</svg>
