<svg width="24" height="24" viewBox="0 0 24 24" fill="none" xmlns="http://www.w3.org/2000/svg">
<rect width="24" height="24" fill="black" fill-opacity="0.01"/>
<path fill-rule="evenodd" clip-rule="evenodd" d="M12 21C7.02944 21 3 16.9706 3 12C3 7.02944 7.02944 3 12 3C16.9706 3 21 7.02944 21 12C21 16.9706 16.9706 21 12 21ZM12 19C15.866 19 19 15.866 19 12C19 8.13401 15.866 5 12 5C8.13401 5 5 8.13401 5 12C5 15.866 8.13401 19 12 19ZM11.0029 12.8394L7.08269 9.08106C7.00356 9.00306 7.255 8.6335 7.64313 8.25025C7.98269 7.91425 8.317 7.68175 8.443 7.68175C8.46081 7.68175 8.4745 7.68644 8.48331 7.69619L11.9942 11.0497L15.5047 7.69619C15.5146 7.68663 15.5289 7.68194 15.5472 7.68194C15.6768 7.68194 16.0055 7.91425 16.3453 8.25025C16.7332 8.6335 16.9916 9.00306 16.9198 9.08106L12.9998 12.8394V17.7558C12.9998 17.8621 12.5329 17.9474 12.0013 17.9546C11.4913 17.9474 11.0029 17.8621 11.0029 17.7558V12.8394Z" fill="#444444"/>
</svg>
