<svg width="24" height="24" viewBox="0 0 24 24" fill="none" xmlns="http://www.w3.org/2000/svg">
<rect width="24" height="24" fill="black" fill-opacity="0.01"/>
<path fill-rule="evenodd" clip-rule="evenodd" d="M1 7H4.5C6.433 7 8 8.567 8 10.5C8 12.433 6.433 14 4.5 14H3V17H1V7ZM19 9V11H21C21.5523 11 22 11.4477 22 12C22 12.5523 21.5523 13 21 13H19V17H17V7H22C22.5523 7 23 7.44772 23 8C23 8.55228 22.5523 9 22 9H19ZM12 7H9V17H12C14.2091 17 16 15.2091 16 13V11C16 8.79086 14.2091 7 12 7ZM11 9V15H12C13.1046 15 14 14.1046 14 13V11C14 9.89543 13.1046 9 12 9H11ZM3 12V9H4.5C5.32843 9 6 9.67157 6 10.5C6 11.3284 5.32843 12 4.5 12H3Z" fill="#444444"/>
</svg>
