<svg width="24" height="24" viewBox="0 0 24 24" fill="none" xmlns="http://www.w3.org/2000/svg">
<rect width="24" height="24" fill="black" fill-opacity="0.01"/>
<path fill-rule="evenodd" clip-rule="evenodd" d="M17.0038 7C17.0989 3.66667 15.4322 2 12.0038 2C8.57546 2 6.90879 3.66667 7.00385 7H17.0038ZM14.0038 5C14.0038 5 14.006 4 12.0038 4C10.0017 4 10.0038 5 10.0038 5H14.0038ZM3 11H5C5.55228 11 6 11.4477 6 12C6 12.5523 5.55228 13 5 13H3C2.44772 13 2 12.5523 2 12C2 11.4477 2.44772 11 3 11ZM21 11H19C18.4477 11 18 11.4477 18 12C18 12.5523 18.4477 13 19 13H21C21.5523 13 22 12.5523 22 12C22 11.4477 21.5523 11 21 11ZM2.70711 16.1213L4.12132 14.7071C4.51184 14.3166 5.14501 14.3166 5.53553 14.7071C5.92606 15.0976 5.92606 15.7308 5.53553 16.1213L4.12132 17.5355C3.7308 17.9261 3.09763 17.9261 2.70711 17.5355C2.31658 17.145 2.31658 16.5118 2.70711 16.1213ZM20.5355 17.5355C20.9261 17.145 20.9261 16.5118 20.5355 16.1213L19.1213 14.7071C18.7308 14.3166 18.0976 14.3166 17.7071 14.7071C17.3166 15.0976 17.3166 15.7308 17.7071 16.1213L19.1213 17.5355C19.5118 17.9261 20.145 17.9261 20.5355 17.5355Z" fill="#444444"/>
<path fill-rule="evenodd" clip-rule="evenodd" d="M5 9H11V23C7 21.6248 5 18.9582 5 15V9ZM19 9V15C19 18.9582 17 21.6248 13 23V9H19Z" fill="#FF3333"/>
</svg>
