<svg width="24" height="24" viewBox="0 0 24 24" fill="none" xmlns="http://www.w3.org/2000/svg">
<rect width="24" height="24" fill="black" fill-opacity="0.01"/>
<path fill-rule="evenodd" clip-rule="evenodd" d="M11 2C9 2 8 3.5 8 5H6C4.34315 5 3 6.34315 3 8V12H5C5.55228 12 6 12.4477 6 13C6 13.5523 5.55228 14 5 14H3V18C3 19.6569 4.34315 21 6 21H10V19C10 18.4477 10.4477 18 11 18C11.5523 18 12 18.4477 12 19V21H16C17.2478 21 19 19.7051 19 18V16C20.5 16 22 15 22 13C22 11 20.5 10 19 10V8.5V8C19 7.32738 18.5257 5.1193 16.1915 5.00464C16.129 5.00157 16.0652 5 16 5H14C14 3.5 13 2 11 2ZM6 19C5.44772 19 5 18.5523 5 18V16C6.65685 16 8 14.6569 8 13C8 11.3431 6.65685 10 5 10V8C5 7.44772 5.44772 7 6 7H10V5C10 4.44772 10.4477 4 11 4C11.5523 4 12 4.44772 12 5V7H16C16.5523 7 17 7.44772 17 8V12H19C19.5523 12 20 12.4477 20 13C20 13.5523 19.5523 14 19 14H17V18C17 18.5523 16.5523 19 16 19H14C14 17.3431 12.6569 16 11 16C9.34315 16 8 17.3431 8 19H6Z" fill="#444444"/>
</svg>
