<svg width="24" height="24" viewBox="0 0 24 24" fill="none" xmlns="http://www.w3.org/2000/svg">
<path fill-rule="evenodd" clip-rule="evenodd" d="M17.7176 7.36393L9.11102 15.9705L5.07107 16.9805C4.53527 17.1145 3.99234 16.7887 3.85839 16.2529C3.81858 16.0937 3.81858 15.9271 3.85839 15.7678L4.86838 11.7279L13.475 3.12129C14.6466 1.94972 16.546 1.94972 17.7176 3.12129C18.8892 4.29287 18.8892 6.19236 17.7176 7.36393ZM14.8892 7.36393L13.475 5.94972L14.8892 4.53551C15.2797 4.14498 15.9129 4.14498 16.3034 4.53551C16.6939 4.92603 16.6939 5.5592 16.3034 5.94972L14.8892 7.36393ZM6.67431 12.7504L12.0608 7.36393L13.475 8.77815L8.08852 14.1646L6.2029 14.636L6.67431 12.7504ZM20 19H4C3.44772 19 3 19.4477 3 20C3 20.5523 3.44772 21 4 21H20C20.5523 21 21 20.5523 21 20C21 19.4477 20.5523 19 20 19Z" fill="#444444"/>
</svg>
