<svg width="24" height="24" viewBox="0 0 24 24" fill="none" xmlns="http://www.w3.org/2000/svg">
<rect width="24" height="24" fill="black" fill-opacity="0.01"/>
<path fill-rule="evenodd" clip-rule="evenodd" d="M12.0064 18L12 18H4V8H5.878C6.899 8 7.754 7.231 7.866 6.22L8.354 5H15.646L16.135 6.222C16.247 7.232 17.102 8 18.122 8H20V15C20 15.5523 20.4477 16 21 16C21.5523 16 22 15.5523 22 15V8C22 6.896 21.104 6 20 6H18.122C18.106 5.833 18.065 5.664 18 5.5L17.503 4.257C17.199 3.498 16.464 3 15.646 3H8.354C7.536 3 6.801 3.498 6.497 4.257L6 5.5C5.936 5.66 5.895 5.829 5.878 6H4C2.896 6 2 6.896 2 8V18C2 19.104 2.896 20 4 20H11.987C12.5403 20 12.9899 19.5533 12.9935 19C12.9971 18.4513 12.5551 18.0036 12.0064 18ZM16.1716 14.7574L19.364 17.9497C19.7545 18.3403 19.7545 18.9734 19.364 19.364C18.9734 19.7545 18.3403 19.7545 17.9497 19.364L14.7574 16.1716C13.967 16.6951 13.0191 17 12 17C9.23858 17 7 14.7614 7 12C7 9.23858 9.23858 7 12 7C14.7614 7 17 9.23858 17 12C17 13.0191 16.6951 13.967 16.1716 14.7574ZM12 15C13.6569 15 15 13.6569 15 12C15 10.3431 13.6569 9 12 9C10.3431 9 9 10.3431 9 12C9 13.6569 10.3431 15 12 15Z" fill="#444444"/>
</svg>
