<svg width="24" height="24" viewBox="0 0 24 24" fill="none" xmlns="http://www.w3.org/2000/svg">
<rect width="24" height="24" fill="black" fill-opacity="0.01"/>
<path fill-rule="evenodd" clip-rule="evenodd" d="M20 4V20C20 21.1046 19.1046 22 18 22H6C4.89543 22 4 21.1046 4 20V4C4 2.89543 4.89543 2 6 2H18C19.1046 2 20 2.89543 20 4ZM18 4V20H6V4H18ZM10 9.37617V14.6238C10 14.9312 10.4143 15.1111 10.7052 14.9237L14.8215 12.2999C15.0595 12.1499 15.0595 11.8501 14.8215 11.7001L10.7052 9.0763C10.4143 8.88888 10 9.0688 10 9.37617Z" fill="#444444"/>
</svg>
