<svg width="24" height="24" viewBox="0 0 24 24" fill="none" xmlns="http://www.w3.org/2000/svg">
<rect width="24" height="24" fill="black" fill-opacity="0.01"/>
<path fill-rule="evenodd" clip-rule="evenodd" d="M16 12.7612V19.6989L12.0497 23.3093L7.3 19.3902L9.12687 17.0421L7.3 14.9205L8.98382 13.3358C6.60849 12.2 5 9.77238 5 7.00867C5 3.13821 8.13368 0 12 0C15.8663 0 19 3.13821 19 7.00867C19 9.337 17.8558 11.4668 16 12.7612ZM14 11.6371L14.4987 11.3481C16.0347 10.4584 17 8.81836 17 7.00862C17 4.24208 14.7611 1.99995 12 1.99995C9.2389 1.99995 7 4.24208 7 7.00862C7 9.44772 8.83 11.4799 10.5 11.9999L10.543 12.0151L11.3403 13.2127L9.99799 15.0856L11.37 16.9578L9.95287 19.1259L11.9503 20.6907L14 18.8173V11.6371ZM13.5 6C13.5 6.82843 12.8284 7.5 12 7.5C11.1716 7.5 10.5 6.82843 10.5 6C10.5 5.17157 11.1716 4.5 12 4.5C12.8284 4.5 13.5 5.17157 13.5 6Z" fill="#444444"/>
</svg>
