<svg width="24" height="24" viewBox="0 0 24 24" fill="none" xmlns="http://www.w3.org/2000/svg">
<rect width="24" height="24" fill="black" fill-opacity="0.01"/>
<path fill-rule="evenodd" clip-rule="evenodd" d="M5.43935 19.4749L8.67343 16.2408C9.97783 17.3386 11.6617 18 13.5 18C17.6421 18 21 14.6421 21 10.5C21 6.35786 17.6421 3 13.5 3C9.35787 3 6.00001 6.35786 6.00001 10.5C6.00001 12.0821 6.48987 13.5498 7.32619 14.7596L4.02513 18.0607C3.63461 18.4512 3.63461 19.0844 4.02513 19.4749C4.41566 19.8654 5.04882 19.8654 5.43935 19.4749ZM19 10.5C19 13.5376 16.5376 16 13.5 16C10.4624 16 8.00001 13.5376 8.00001 10.5C8.00001 7.46243 10.4624 5 13.5 5C16.5376 5 19 7.46243 19 10.5Z" fill="#444444"/>
</svg>
