<svg width="24" height="24" viewBox="0 0 24 24" fill="none" xmlns="http://www.w3.org/2000/svg">
<rect width="24" height="24" fill="black" fill-opacity="0.01"/>
<path fill-rule="evenodd" clip-rule="evenodd" d="M13.1132 6.98159C13.1252 7.12329 13.1382 7.2634 13.1522 7.40191C12.8509 7.52781 12.5412 7.67456 12.2181 7.84144C9.76014 9.21127 9.08324 12.3104 11.4991 13.7307C12.4743 14.2866 13.6026 14.2642 14.9069 13.685C15.3027 14.4418 15.7511 15.1023 16.2538 15.6657C16.6215 16.0778 17.2536 16.1138 17.6657 15.7462C18.0778 15.3785 18.1139 14.7464 17.7462 14.3343C17.3382 13.8769 16.9668 13.3225 16.6337 12.6703C17.4742 12.0694 18.3765 11.2858 19.345 10.3235C19.5102 10.591 19.6021 10.9097 19.6365 11.303C19.5625 11.7021 19.3424 11.9058 18.8318 12.0263C18.2943 12.1532 17.9615 12.6919 18.0884 13.2294C18.2153 13.7669 18.754 14.0997 19.2915 13.9728C20.6283 13.6571 21.4681 12.7761 21.6341 11.4675L21.6401 11.2805C21.5786 10.2784 21.279 9.48404 20.7501 8.85406C21.3671 8.17893 22.0085 7.44059 22.6753 6.63991C23.0287 6.21551 22.9712 5.58496 22.5468 5.23154C22.1224 4.87812 21.4918 4.93566 21.1384 5.36005C20.4286 6.21242 19.7548 6.9815 19.1186 7.6689C18.9373 7.5859 18.7464 7.50849 18.5461 7.43629C17.2024 6.9519 16.1346 6.77616 15.1117 6.87789C15.1032 6.7811 15.0952 6.6834 15.0877 6.5848C16.3256 6.13293 17.8252 5.19976 19.6192 3.78524C20.0529 3.44329 20.1272 2.8145 19.7853 2.38082C19.4433 1.94713 18.8145 1.87276 18.3808 2.21472C17.0446 3.26834 15.9121 4.01377 15.0014 4.45099C14.9975 3.9915 15.0019 3.51651 15.0146 3.02603C15.029 2.47393 14.5931 2.01471 14.041 2.00032C13.4889 1.98593 13.0297 2.42183 13.0153 2.97393C12.9972 3.67128 12.9951 4.34132 13.0093 4.98416C12.219 5.0366 11.2791 4.96004 10.1921 4.7473C9.65006 4.64122 9.12469 4.99462 9.01862 5.53662C8.91255 6.07862 9.26594 6.60399 9.80794 6.71006C11.0366 6.95051 12.1376 7.04314 13.1132 6.98159ZM4.193 18L2.93633 21.3511C2.74241 21.8682 2.166 22.1302 1.64888 21.9363C1.13176 21.7424 0.869751 21.166 1.06367 20.6489L5.56367 8.64886H7.43633L11.9363 20.6489C12.1302 21.166 11.8682 21.7424 11.3511 21.9363C10.834 22.1302 10.2576 21.8682 10.0637 21.3511L8.807 18H4.193ZM8.057 16L6.5 11.848L4.943 16H8.057ZM13.4536 9.45796C13.3592 9.5039 13.2627 9.55239 13.1638 9.60339C11.9205 10.2966 11.6569 11.5035 12.5011 11.9999C12.8803 12.216 13.4232 12.1728 14.1184 11.8596C13.9935 11.5082 13.8765 11.1421 13.7672 10.7615C13.6489 10.3493 13.5444 9.91479 13.4536 9.45796ZM15.6896 10.2097C15.5694 9.79096 15.4648 9.34204 15.3758 8.86303C16.0315 8.81072 16.718 8.9275 17.6009 9.22464C16.9713 9.83209 16.389 10.3421 15.8562 10.7569C15.7988 10.5791 15.7433 10.3967 15.6896 10.2097Z" fill="#444444"/>
</svg>
