<svg width="24" height="24" viewBox="0 0 24 24" fill="none" xmlns="http://www.w3.org/2000/svg">
<rect width="24" height="24" fill="black" fill-opacity="0.01"/>
<path fill-rule="evenodd" clip-rule="evenodd" d="M13 2.34003C13 1.78803 12.552 1.34003 12 1.34003C11.448 1.34003 11 1.78803 11 2.34003V8.34003C11 8.89203 11.448 9.34003 12 9.34003C12.552 9.34003 13 8.89203 13 8.34003V2.34003ZM3 11.9975C3 16.9595 7.038 20.9975 12 20.9975C16.962 20.9975 21 16.9595 21 11.9975C21 8.98453 19.502 6.18453 16.994 4.50853C16.533 4.20253 15.913 4.32453 15.606 4.78453C15.3 5.24453 15.423 5.86553 15.882 6.17153C17.834 7.47653 19 9.65353 19 11.9975C19 15.8575 15.86 18.9975 12 18.9975C8.14 18.9975 5 15.8575 5 11.9975C5 9.68053 6.144 7.51753 8.061 6.21053C8.517 5.89953 8.634 5.27753 8.323 4.82053C8.012 4.36553 7.391 4.24753 6.934 4.55853C4.471 6.23753 3 9.01853 3 11.9975Z" fill="#444444"/>
</svg>
