<svg width="24" height="24" viewBox="0 0 24 24" fill="none" xmlns="http://www.w3.org/2000/svg">
<rect width="24" height="24" fill="black" fill-opacity="0.01"/>
<path d="M6 6C6 5.44772 6.44772 5 7 5H10C10.5523 5 11 5.44772 11 6C11 6.55228 10.5523 7 10 7H7C6.44772 7 6 6.55228 6 6Z" fill="#444444"/>
<path fill-rule="evenodd" clip-rule="evenodd" d="M4.19019 1C2.42609 1 1.04279 2.51476 1.20251 4.27161L1.83887 11.2716C1.97935 12.8168 3.27494 14 4.82655 14H5V17L5.00008 17.0182V20.4806L8.50008 23.2806L12.0001 20.4806V19H21C22.1046 19 23 18.1046 23 17V7C23 5.89543 22.1046 5 21 5H15.7315L15.7977 4.27161C15.9574 2.51476 14.5741 1 12.8101 1H4.19019ZM3.19429 4.09054C3.14105 3.50492 3.60216 3 4.19019 3H12.8101C13.3981 3 13.8592 3.50492 13.8059 4.09054L13.1696 11.0905C13.1228 11.6056 12.6909 12 12.1737 12H10.0001V19.5194L8.50008 20.7194L7.00008 19.5194V12H4.82655C4.30935 12 3.87748 11.6056 3.83066 11.0905L3.19429 4.09054ZM21 10V7H15.5497L15.3679 10H21ZM15.0027 12C14.5884 13.1736 13.4705 14 12.1737 14H12.0001V17H21V12H15.0027Z" fill="#444444"/>
</svg>
