<svg width="24" height="24" viewBox="0 0 24 24" fill="none" xmlns="http://www.w3.org/2000/svg">
<rect width="24" height="24" fill="black" fill-opacity="0.01"/>
<path fill-rule="evenodd" clip-rule="evenodd" d="M17.3 8.4C18.7912 8.4 20 7.19117 20 5.7C20 4.20883 18.7912 3 17.3 3C15.8088 3 14.6 4.20883 14.6 5.7C14.6 5.95324 14.6349 6.19834 14.7001 6.43076L8.51545 10.0014C8.03596 9.56562 7.399 9.3 6.7 9.3C5.20883 9.3 4 10.5088 4 12C4 13.4912 5.20883 14.7 6.7 14.7C7.399 14.7 8.03596 14.4344 8.51545 13.9986L14.7255 17.5839C14.644 17.8414 14.6 18.1156 14.6 18.4C14.6 19.8912 15.8088 21.1 17.3 21.1C18.7912 21.1 20 19.8912 20 18.4C20 16.9088 18.7912 15.7 17.3 15.7C16.6376 15.7 16.0309 15.9385 15.5612 16.3344L9.30266 12.721C9.3661 12.4915 9.4 12.2497 9.4 12C9.4 11.7503 9.3661 11.5085 9.30266 11.279L15.4922 7.70547C15.9708 8.13718 16.6047 8.4 17.3 8.4Z" fill="#444444"/>
</svg>
