<svg width="24" height="24" viewBox="0 0 24 24" fill="none" xmlns="http://www.w3.org/2000/svg">
<rect width="24" height="24" fill="black" fill-opacity="0.01"/>
<path fill-rule="evenodd" clip-rule="evenodd" d="M5 3H19C20.1046 3 21 3.89543 21 5V19C21 20.1046 20.1046 21 19 21H5C3.89543 21 3 20.1046 3 19V5C3 3.89543 3.89543 3 5 3ZM13.4142 12L15.6569 14.2426C16.0474 14.6332 16.0474 15.2663 15.6569 15.6569C15.2663 16.0474 14.6332 16.0474 14.2426 15.6569L12 13.4142L9.75736 15.6569C9.36684 16.0474 8.73367 16.0474 8.34315 15.6569C7.95262 15.2663 7.95262 14.6332 8.34315 14.2426L10.5858 12L8.34315 9.75736C7.95262 9.36684 7.95262 8.73367 8.34315 8.34315C8.73367 7.95262 9.36684 7.95262 9.75736 8.34315L12 10.5858L14.2426 8.34315C14.6332 7.95262 15.2663 7.95262 15.6569 8.34315C16.0474 8.73367 16.0474 9.36684 15.6569 9.75736L13.4142 12ZM5 19V5H19V19H5Z" fill="#444444"/>
</svg>
