<svg width="24" height="24" viewBox="0 0 24 24" fill="none" xmlns="http://www.w3.org/2000/svg">
<path fill-rule="evenodd" clip-rule="evenodd" d="M19 6H15V9H19V6ZM15 4C13.8954 4 13 4.89543 13 6V9C13 10.1046 13.8954 11 15 11H19C20.1046 11 21 10.1046 21 9V6C21 4.89543 20.1046 4 19 4H15ZM19 15H15V18H19V15ZM15 13C13.8954 13 13 13.8954 13 15V18C13 19.1046 13.8954 20 15 20H19C20.1046 20 21 19.1046 21 18V15C21 13.8954 20.1046 13 19 13H15ZM5 18V15H9V18H5ZM3 15C3 13.8954 3.89543 13 5 13H9C10.1046 13 11 13.8954 11 15V18C11 19.1046 10.1046 20 9 20H5C3.89543 20 3 19.1046 3 18V15ZM3.5 7.5C3.5 6.94772 3.94772 6.5 4.5 6.5H6V5C6 4.44772 6.44772 4 7 4C7.55228 4 8 4.44772 8 5V6.5H9.5C10.0523 6.5 10.5 6.94772 10.5 7.5C10.5 8.05228 10.0523 8.5 9.5 8.5H8V10C8 10.5523 7.55228 11 7 11C6.44772 11 6 10.5523 6 10V8.5H4.5C3.94772 8.5 3.5 8.05228 3.5 7.5Z" fill="black" fill-opacity="0.8"/>
</svg>
