<svg width="24" height="24" viewBox="0 0 24 24" fill="none" xmlns="http://www.w3.org/2000/svg">
<rect width="24" height="24" fill="black" fill-opacity="0.01"/>
<path fill-rule="evenodd" clip-rule="evenodd" d="M11.6237 13.7258C12.1379 13.5825 12.671 13.4659 13.2228 13.3816V16.5421C13.2228 16.8072 13.3281 17.0615 13.5155 17.249C13.9059 17.6396 14.5391 17.6398 14.9297 17.2494L21.7056 10.478C22.096 10.0873 22.0958 9.45417 21.7052 9.06375L14.9297 2.2927C14.7422 2.10528 14.4879 2 14.2228 2C13.6705 2 13.2228 2.44772 13.2228 3V5.8455C5.11686 7.14159 2 16.0681 2 21.0023C2 21.0051 2.01665 20.9807 2.04972 20.9322C2.4817 20.299 5.71497 15.5595 11.2228 13.8441L11.6237 13.7258ZM15.2228 11.0527L12.9206 11.4045C10.1604 11.8264 7.66294 12.9561 5.43169 14.5988C7.03488 11.1725 9.89139 8.40357 13.5386 7.82041L15.2228 7.55111V5.41309L19.5833 9.7707L15.2228 14.1288V11.0527Z" fill="#444444"/>
</svg>
