<svg width="24" height="24" viewBox="0 0 24 24" fill="none" xmlns="http://www.w3.org/2000/svg">
<rect width="24" height="24" fill="black" fill-opacity="0.01"/>
<path fill-rule="evenodd" clip-rule="evenodd" d="M21.5084 16.6949C21.8259 16.2983 21.7973 15.7362 21.425 15.3446L19.8086 13.7636C19.8571 13.5468 19.8981 13.3246 19.9256 13.1007C19.9535 12.8735 19.9677 12.6458 19.9729 12.4158L21.9425 11.2605C22.3812 10.9808 22.5448 10.4434 22.3364 9.98905L20.8067 6.50443C20.5965 6.04649 20.0836 5.79771 19.5716 5.91728L17.3736 6.48139C17.029 6.17266 16.6636 5.90163 16.2685 5.65833L16.2206 3.41914C16.1863 2.93144 15.7859 2.51621 15.2868 2.45493L11.439 1.98248C10.9354 1.92065 10.4443 2.23422 10.2903 2.7303L9.70839 4.86865C9.26231 5.01202 8.83733 5.18931 8.43834 5.39781L6.43042 4.31168C5.97525 4.08006 5.41774 4.19516 5.09742 4.59577L2.78105 7.59358C2.46343 7.99116 2.49217 8.55218 2.86453 8.94381L4.48071 10.5259C4.43228 10.7427 4.39121 10.9649 4.36372 11.1888C4.33582 11.416 4.32164 11.6437 4.31537 11.8724L2.34586 13.0277C1.90717 13.3074 1.7435 13.8448 1.95195 14.2992L3.48158 17.7838C3.69185 18.2417 4.2058 18.4906 4.71677 18.3709L6.91471 17.8068C7.25934 18.1156 7.6247 18.3866 8.01985 18.6299L8.06773 20.8691C8.10202 21.3569 8.5025 21.7721 9.00158 21.8334L12.8493 22.3058C13.3529 22.3677 13.8441 22.0541 14.0003 21.5583L14.581 19.4198C15.0271 19.2764 15.4521 19.0991 15.8511 18.8906L17.859 19.9768C18.3151 20.2108 18.8728 20.0934 19.192 19.6927L21.5084 16.6949ZM17.8567 13.3276L17.6139 14.4146L19.3962 16.1578L18.1007 17.834L16.8026 17.1315L15.8673 16.6256L14.9248 17.1181C14.6267 17.2739 14.3068 17.4072 13.9691 17.5157L12.9355 17.8479L12.2907 20.2222L10.047 19.9467L10.0194 18.5871L9.9961 17.498L9.06846 16.9268C8.77075 16.7435 8.50163 16.5433 8.24919 16.3171L7.45296 15.6039L4.98651 16.2369L4.13473 14.2961L5.32727 13.5976L6.2842 13.0363L6.31462 11.9273C6.31974 11.7406 6.33082 11.579 6.34881 11.4326C6.36632 11.2899 6.39418 11.1339 6.4326 10.9619L6.67529 9.87543L4.89313 8.13086L6.18875 6.45433L7.48679 7.15694L8.42215 7.6629L9.36465 7.17037C9.66274 7.01459 9.98262 6.88127 10.3204 6.77272L11.3533 6.44072L11.9995 4.06632L14.2414 4.34159L14.2689 5.70109L14.2922 6.79022L15.2199 7.36139C15.5176 7.5447 15.7867 7.74493 16.0391 7.97107L16.8354 8.68435L19.3018 8.05133L20.1536 9.99214L18.961 10.6906L17.9989 11.255L17.9735 12.3702C17.9694 12.5501 17.9586 12.7098 17.9405 12.8569C17.923 12.9996 17.8952 13.1556 17.8567 13.3276ZM11.726 16.1222C9.529 15.8913 7.93515 13.9231 8.16607 11.726C8.39698 9.52901 10.3652 7.93515 12.5623 8.16607C14.7593 8.39699 16.3532 10.3652 16.1222 12.5623C15.8913 14.7593 13.9231 16.3532 11.726 16.1222ZM14.1332 12.3532C14.0177 13.4517 13.0336 14.2487 11.9351 14.1332C10.8366 14.0177 10.0397 13.0336 10.1551 11.9351C10.2706 10.8366 11.2547 10.0397 12.3532 10.1551C13.4517 10.2706 14.2487 11.2547 14.1332 12.3532Z" fill="#444444"/>
</svg>
