<svg width="24" height="24" viewBox="0 0 24 24" fill="none" xmlns="http://www.w3.org/2000/svg">
<rect width="24" height="24" fill="black" fill-opacity="0.01"/>
<path fill-rule="evenodd" clip-rule="evenodd" d="M12 4C8.22386 4 3.22186 3 3.22186 3C2.24651 11 4.3658 21 12 21C19.6342 21 21.7535 11 20.7781 3C20.7781 3.03247 15.7761 4 12 4ZM18.9786 5.35877C19.3856 13.063 16.6884 19 12 19C7.30885 19 4.61121 13.0559 5.02216 5.34503C5.31094 5.39067 5.60656 5.43557 5.90761 5.47926C8.1477 5.80438 10.2342 6 12 6C13.7704 6 15.8753 5.808 18.0878 5.4921C18.3911 5.4488 18.6895 5.40404 18.9786 5.35877ZM11.5 11L10.3889 9H8.16667L7.5 9.5L6.5 10.5L11.5 11ZM13.6111 9L12.5 11L17.5 10.5L16.5 9.5L15.8333 9H13.6111Z" fill="#444444"/>
</svg>
