<svg width="24" height="24" viewBox="0 0 24 24" fill="none" xmlns="http://www.w3.org/2000/svg">
<rect width="24" height="24" fill="black" fill-opacity="0.01"/>
<path fill-rule="evenodd" clip-rule="evenodd" d="M10 18.7101V20.777C5.99202 19.8675 3 16.2832 3 12C3 7.02944 7.02944 3 12 3C16.9706 3 21 7.02944 21 12H19C19 10.4277 18.4816 8.97641 17.6064 7.80783L7.80783 17.6064C8.4599 18.0948 9.19998 18.472 10 18.7101ZM6.39362 16.1922L16.1922 6.39362C15.0236 5.5184 13.5723 5 12 5C8.13401 5 5 8.13401 5 12C5 13.5723 5.5184 15.0236 6.39362 16.1922ZM12.3431 17.7574L16 21.4142L21.6569 15.7574C22.0474 15.3668 22.0474 14.7337 21.6569 14.3431C21.2663 13.9526 20.6332 13.9526 20.2426 14.3431L16 18.5858L13.7574 16.3431C13.3668 15.9526 12.7337 15.9526 12.3431 16.3431C11.9526 16.7337 11.9526 17.3668 12.3431 17.7574Z" fill="#444444"/>
</svg>
