<svg width="24" height="24" viewBox="0 0 24 24" fill="none" xmlns="http://www.w3.org/2000/svg">
<rect width="24" height="24" fill="black" fill-opacity="0.01"/>
<path fill-rule="evenodd" clip-rule="evenodd" d="M5 14V15H12H19V5H5V14ZM19 17H13V19H17C17.5523 19 18 19.4477 18 20C18 20.5523 17.5523 21 17 21H7C6.44772 21 6 20.5523 6 20C6 19.4477 6.44772 19 7 19H11V17H5C3.89543 17 3 16.1046 3 15V14V5C3 3.89543 3.89543 3 5 3H19C20.1046 3 21 3.89543 21 5V15C21 16.1046 20.1046 17 19 17ZM14.6569 12.6569C15.0474 12.2663 15.0474 11.6332 14.6569 11.2426L13.4142 10L14.6569 8.75736C15.0474 8.36684 15.0474 7.73367 14.6569 7.34315C14.2663 6.95262 13.6332 6.95262 13.2426 7.34315L12 8.58579L10.7574 7.34315C10.3668 6.95262 9.73367 6.95262 9.34315 7.34315C8.95262 7.73367 8.95262 8.36684 9.34315 8.75736L10.5858 10L9.34315 11.2426C8.95262 11.6332 8.95262 12.2663 9.34315 12.6569C9.73367 13.0474 10.3668 13.0474 10.7574 12.6569L12 11.4142L13.2426 12.6569C13.6332 13.0474 14.2663 13.0474 14.6569 12.6569Z" fill="#444444"/>
</svg>
