<svg width="24" height="24" viewBox="0 0 24 24" fill="none" xmlns="http://www.w3.org/2000/svg">
<rect width="24" height="24" fill="black" fill-opacity="0.01"/>
<path fill-rule="evenodd" clip-rule="evenodd" d="M21.1019 19.6721C21.1941 19.3325 21.1941 18.9679 21.1002 18.6221L20.4591 16.4363C20.4001 16.1671 20.4286 15.8859 20.5408 15.6339C22.2147 11.5889 20.8068 6.95306 17.1885 4.53644C13.5701 2.11981 8.74866 2.59519 5.67193 5.67193C2.59519 8.74866 2.11981 13.5701 4.53644 17.1885C6.95306 20.8068 11.5889 22.2147 15.6095 20.5512C15.8687 20.4352 16.126 20.4031 16.3759 20.4471C16.4133 20.4539 16.4544 20.4627 16.4786 20.469L18.6181 21.0986C19.723 21.3845 20.8183 20.7433 21.1019 19.6721ZM18.5183 16.9204L18.5316 16.9707C18.9577 18.4249 19.1639 19.1583 19.1502 19.171L17.0123 18.5418C16.9061 18.5137 16.8172 18.4945 16.7281 18.4783C16.0779 18.3639 15.4141 18.4467 14.8171 18.7151C11.7058 20.0019 8.08638 18.9027 6.19961 16.0777C4.31283 13.2527 4.68398 9.4883 7.08614 7.08614C9.4883 4.68398 13.2527 4.31283 16.0777 6.19961C18.9027 8.08638 20.0019 11.7058 18.7032 14.8449C18.42 15.4801 18.3514 16.2179 18.5183 16.9204ZM12.1082 7.99219C14.3852 7.99495 16.2304 9.84016 16.2332 12.1172C16.2332 14.3954 14.3864 16.2422 12.1082 16.2422C9.83002 16.2422 7.98319 14.3954 7.98319 12.1172C7.98319 9.83902 9.83002 7.99219 12.1082 7.99219ZM12.1082 14.2422C10.9346 14.2422 9.98319 13.2908 9.98319 12.1172C9.98319 10.944 10.9339 9.99285 12.107 9.99219C13.2808 9.99427 14.2318 10.9457 14.2332 12.1196C14.2332 13.2908 13.2818 14.2422 12.1082 14.2422Z" fill="#444444"/>
</svg>
