<svg width="56" height="56" viewBox="0 0 56 56" fill="none" xmlns="http://www.w3.org/2000/svg">
<rect width="56" height="56" fill="#F2F2F2"/>
<path d="M22.25 12.25H35.0625C39.7765 12.25 42.1336 12.25 43.598 13.7145C45.0625 15.1789 45.0625 17.536 45.0625 22.25V35.0625C45.0625 39.7765 45.0625 42.1336 43.598 43.598C42.1336 45.0625 39.7765 45.0625 35.0625 45.0625H22.25C17.536 45.0625 15.1789 45.0625 13.7145 43.598C12.25 42.1336 12.25 39.7765 12.25 35.0625V22.25C12.25 17.536 12.25 15.1789 13.7145 13.7145C15.1789 12.25 17.536 12.25 22.25 12.25Z" fill="url(#paint0_linear)"/>
<mask id="mask0" mask-type="alpha" maskUnits="userSpaceOnUse" x="12" y="12" width="34" height="34">
<path d="M22.25 12.25H35.0625C39.7765 12.25 42.1336 12.25 43.598 13.7145C45.0625 15.1789 45.0625 17.536 45.0625 22.25V35.0625C45.0625 39.7765 45.0625 42.1336 43.598 43.598C42.1336 45.0625 39.7765 45.0625 35.0625 45.0625H22.25C17.536 45.0625 15.1789 45.0625 13.7145 43.598C12.25 42.1336 12.25 39.7765 12.25 35.0625V22.25C12.25 17.536 12.25 15.1789 13.7145 13.7145C15.1789 12.25 17.536 12.25 22.25 12.25Z" fill="url(#paint1_linear)"/>
</mask>
<g mask="url(#mask0)">
<path opacity="0.7" fill-rule="evenodd" clip-rule="evenodd" d="M1.80859 48.0452L19.7063 30.1475L37.604 48.0452H1.80859Z" fill="url(#paint2_linear)"/>
<path fill-rule="evenodd" clip-rule="evenodd" d="M16.7246 48.0455L37.6053 25.6733L58.486 48.0455H16.7246Z" fill="#FF3333"/>
</g>
<path d="M12.8406 18.3899C14.1338 21.0893 18.4829 21.7237 22.5538 19.807C26.6252 17.8904 28.8774 14.1491 27.5842 11.4497C27.363 10.9881 27.8453 9.28879 27.2899 9.32525C25.894 9.41716 25.0695 9.04453 24.046 8.72034C22.0932 8.10095 19.6757 8.13641 17.4619 9.1789C15.5474 10.0795 14.1257 11.5731 13.2912 13.183C12.6653 14.3903 12.1391 15.7999 11.3293 16.6012C10.9201 17.0063 12.6113 17.9114 12.8406 18.3899Z" fill="#004389"/>
<path d="M12.8406 18.3899C14.1338 21.0893 18.4829 21.7237 22.5538 19.807C26.6252 17.8904 28.8774 14.1491 27.5842 11.4497C27.363 10.9881 27.8453 9.28879 27.2899 9.32525C25.894 9.41716 25.0695 9.04453 24.046 8.72034C22.0932 8.10095 19.6757 8.13641 17.4619 9.1789C15.5474 10.0795 14.1257 11.5731 13.2912 13.183C12.6653 14.3903 12.1391 15.7999 11.3293 16.6012C10.9201 17.0063 12.6113 17.9114 12.8406 18.3899Z" fill="url(#paint3_linear)" fill-opacity="0.5"/>
<path d="M8.57808 23.5435C10.3626 27.2683 36.0928 15.1566 34.3078 11.4318C33.1507 9.01713 25.6781 8.15247 18.5729 11.4972C11.4677 14.8419 7.1781 20.6218 8.57808 23.5435Z" fill="#004389"/>
<path d="M8.57808 23.5435C10.3626 27.2683 36.0928 15.1566 34.3078 11.4318C33.1507 9.01713 25.6781 8.15247 18.5729 11.4972C11.4677 14.8419 7.1781 20.6218 8.57808 23.5435Z" fill="url(#paint4_linear)" fill-opacity="0.5"/>
<path d="M8.64484 23.6836C9.79738 26.0892 17.0769 26.5493 24.1816 23.2045C31.2868 19.8603 35.5271 13.9775 34.3746 11.5719C33.222 9.16622 26.4378 9.73866 19.3326 13.0834C12.2274 16.4281 7.49231 21.2779 8.64484 23.6836Z" fill="#0077FF"/>
<path d="M16.3381 22.4612C16.8854 23.6036 20.0648 23.2424 23.4393 21.654C26.8137 20.0655 29.1052 17.8517 28.5579 16.7088C28.0106 15.5664 24.8312 15.9281 21.4567 17.5165C18.0823 19.105 15.7908 21.3188 16.3381 22.4612Z" fill="white"/>
<path d="M16.1875 22.0938L28.6562 16.8438L38.5 26.6875L18.8125 36.5312L16.1875 22.0938Z" fill="url(#paint5_linear)"/>
<defs>
<linearGradient id="paint0_linear" x1="40.6454" y1="65.7862" x2="4.12543" y2="40.3509" gradientUnits="userSpaceOnUse">
<stop stop-color="#FF8301"/>
<stop offset="1" stop-color="#FFD942"/>
</linearGradient>
<linearGradient id="paint1_linear" x1="30.5493" y1="32.1102" x2="16.524" y2="21.201" gradientUnits="userSpaceOnUse">
<stop stop-color="#FF9801"/>
<stop offset="1" stop-color="#FFCC00"/>
</linearGradient>
<linearGradient id="paint2_linear" x1="15.9776" y1="28.656" x2="22.4116" y2="53.8139" gradientUnits="userSpaceOnUse">
<stop stop-color="#FFC503"/>
<stop offset="0.183008" stop-color="#FF9502"/>
<stop offset="0.380909" stop-color="#FF5B01"/>
<stop offset="0.486086" stop-color="#FF3101"/>
<stop offset="0.688788" stop-color="#FF1800"/>
<stop offset="1" stop-color="#FF0E00"/>
</linearGradient>
<linearGradient id="paint3_linear" x1="22.0942" y1="8.96875" x2="16.1509" y2="12.1813" gradientUnits="userSpaceOnUse">
<stop stop-color="#0F82F7"/>
<stop offset="1" stop-color="#1184F8" stop-opacity="0"/>
</linearGradient>
<linearGradient id="paint4_linear" x1="21.5957" y1="21.5953" x2="21.1949" y2="14.8004" gradientUnits="userSpaceOnUse">
<stop stop-color="#0F82F7"/>
<stop offset="1" stop-color="#1184F8" stop-opacity="0"/>
</linearGradient>
<linearGradient id="paint5_linear" x1="24.7187" y1="20.125" x2="29.3125" y2="31.2813" gradientUnits="userSpaceOnUse">
<stop stop-color="white"/>
<stop offset="1" stop-color="white" stop-opacity="0"/>
</linearGradient>
</defs>
</svg>
