<svg width="56" height="56" viewBox="0 0 56 56" fill="none" xmlns="http://www.w3.org/2000/svg">
<rect width="56" height="56" fill="#F2F2F2"/>
<path fill-rule="evenodd" clip-rule="evenodd" d="M44.7986 22.3827C44.7986 28.5587 39.7921 33.5653 33.6161 33.5653C27.4402 33.5653 22.4336 28.5587 22.4336 22.3827C22.4336 16.2068 27.4402 11.2002 33.6161 11.2002C39.7921 11.2002 44.7986 16.2068 44.7986 22.3827ZM37.6937 21.0746C38.5945 21.4946 39.242 22.1503 39.5773 22.9882C40.4292 25.1186 39.4701 27.5429 38.0833 28.8367L37.0319 27.6913C37.8654 26.9136 38.7608 25.1213 38.141 23.5721C37.9591 23.1163 37.6143 22.8108 37.2647 22.6076C36.8656 23.7313 36.2248 24.9899 35.1951 26.2017C34.967 26.47 34.7206 26.7165 34.4674 26.9509C35.0336 27.8166 35.4829 28.2576 35.4931 28.267L34.4288 29.4003C34.3826 29.3569 33.8715 28.8564 33.2368 27.9046C32.2675 28.5197 31.252 28.8814 30.3669 28.8814C30.2108 28.8814 30.0594 28.8706 29.9128 28.8476C29.0372 28.7141 28.3631 28.1905 28.0136 27.3743C27.1821 25.4295 28.8145 23.0377 30.8713 21.8055C30.6656 20.6919 30.5482 19.6718 30.4871 18.781C30.4541 18.7814 30.4224 18.7822 30.3907 18.7831C30.3589 18.7839 30.3272 18.7848 30.2943 18.7851C30.2628 18.7851 30.2315 18.7853 30.2004 18.7855C30.1699 18.7856 30.1396 18.7858 30.1097 18.7858C28.8559 18.7858 27.7543 18.7004 27.2988 18.6605V17.0923C27.6029 17.1201 28.894 17.2278 30.2827 17.2244C30.3079 17.2241 30.3319 17.2234 30.3558 17.2227C30.3791 17.222 30.4022 17.2214 30.426 17.221C30.4199 16.3357 30.4653 15.703 30.4925 15.4003H32.0483C32.0442 15.4362 31.9716 16.0905 31.977 17.1655C36.3334 16.9054 38.9291 15.846 38.9576 15.8338L39.5536 17.2739C39.4266 17.3281 36.6844 18.4566 32.0374 18.7262C32.0876 19.4422 32.1772 20.2482 32.3232 21.118C33.6285 20.6357 34.9908 20.4657 36.1997 20.6411C36.3029 20.1141 36.3422 19.6867 36.3572 19.3981H37.9068C37.8912 19.7781 37.8417 20.3587 37.6937 21.0746ZM29.4349 26.7558C29.5741 27.0816 29.7933 27.251 30.1443 27.3052C30.7762 27.3993 31.6227 27.106 32.4501 26.5668C32.0089 25.7147 31.5752 24.6647 31.2364 23.4238C29.8829 24.3985 29.0521 25.8596 29.4349 26.7558ZM33.6787 25.5521C33.7948 25.4329 33.9108 25.3137 34.0194 25.1863C34.8856 24.1669 35.4327 23.1061 35.7782 22.1578C35.5976 22.1381 35.413 22.1286 35.225 22.1286C34.3975 22.1286 33.5049 22.3156 32.6388 22.6678C32.9219 23.8031 33.2938 24.763 33.6787 25.5521Z" fill="black"/>
<path d="M22.3817 44.8001C28.5577 44.8001 33.5643 39.7935 33.5643 33.6176C33.5643 27.4416 28.5577 22.4351 22.3817 22.4351C16.2058 22.4351 11.1992 27.4416 11.1992 33.6176C11.1992 39.7935 16.2058 44.8001 22.3817 44.8001Z" fill="#FF3333"/>
<path d="M22.3817 44.8001C28.5577 44.8001 33.5643 39.7935 33.5643 33.6176C33.5643 27.4416 28.5577 22.4351 22.3817 22.4351C16.2058 22.4351 11.1992 27.4416 11.1992 33.6176C11.1992 39.7935 16.2058 44.8001 22.3817 44.8001Z" fill="url(#paint0_radial)"/>
<path fill-rule="evenodd" clip-rule="evenodd" d="M21.5638 26.6006L16.3789 39.2001H18.5009L19.7758 35.8481H25.02L26.295 39.2001H28.4162L23.2313 26.6006H21.5638ZM22.3979 29.1995L24.3291 34.1344H20.4661L22.3979 29.1995Z" fill="white"/>
<defs>
<radialGradient id="paint0_radial" cx="0" cy="0" r="1" gradientUnits="userSpaceOnUse" gradientTransform="translate(26.0305 29.3122) rotate(103.257) scale(15.9119)">
<stop stop-color="white" stop-opacity="0.45"/>
<stop offset="1" stop-color="white" stop-opacity="0"/>
</radialGradient>
</defs>
</svg>
