<svg width="56" height="56" viewBox="0 0 56 56" fill="none" xmlns="http://www.w3.org/2000/svg">
<rect width="56" height="56" fill="#F2F2F2"/>
<path fill-rule="evenodd" clip-rule="evenodd" d="M46.2008 27.9998C46.2008 30.4133 45.739 32.7349 44.8154 34.9646C43.8918 37.1944 42.5767 39.1626 40.8701 40.8691C39.1635 42.5757 37.1954 43.8908 34.9656 44.8144C32.7359 45.738 30.4142 46.1998 28.0008 46.1998C25.5873 46.1998 23.2657 45.738 21.0359 44.8144C18.8062 43.8908 16.838 42.5757 15.1314 40.8691C13.4249 39.1626 12.1098 37.1944 11.1862 34.9646C10.2626 32.7349 9.80078 30.4133 9.80078 27.9998C9.80078 25.5863 10.2626 23.2647 11.1862 21.035C12.1098 18.8052 13.4249 16.837 15.1314 15.1305C16.838 13.4239 18.8062 12.1088 21.0359 11.1852C23.2657 10.2616 25.5873 9.7998 28.0008 9.7998C30.4142 9.7998 32.7359 10.2616 34.9656 11.1852C37.1954 12.1088 39.1635 13.4239 40.8701 15.1305C42.5767 16.837 43.8918 18.8052 44.8154 21.035C45.739 23.2647 46.2008 25.5863 46.2008 27.9998Z" fill="#FFCC00"/>
<path fill-rule="evenodd" clip-rule="evenodd" d="M46.2008 27.9998C46.2008 30.4133 45.739 32.7349 44.8154 34.9646C43.8918 37.1944 42.5767 39.1626 40.8701 40.8691C39.1635 42.5757 37.1954 43.8908 34.9656 44.8144C32.7359 45.738 30.4142 46.1998 28.0008 46.1998C25.5873 46.1998 23.2657 45.738 21.0359 44.8144C18.8062 43.8908 16.838 42.5757 15.1314 40.8691C13.4249 39.1626 12.1098 37.1944 11.1862 34.9646C10.2626 32.7349 9.80078 30.4133 9.80078 27.9998C9.80078 25.5863 10.2626 23.2647 11.1862 21.035C12.1098 18.8052 13.4249 16.837 15.1314 15.1305C16.838 13.4239 18.8062 12.1088 21.0359 11.1852C23.2657 10.2616 25.5873 9.7998 28.0008 9.7998C30.4142 9.7998 32.7359 10.2616 34.9656 11.1852C37.1954 12.1088 39.1635 13.4239 40.8701 15.1305C42.5767 16.837 43.8918 18.8052 44.8154 21.035C45.739 23.2647 46.2008 25.5863 46.2008 27.9998Z" fill="url(#paint0_linear)" fill-opacity="0.4"/>
<path fill-rule="evenodd" clip-rule="evenodd" d="M22.4004 19.6001V36.7208L37.208 28.1605L22.4004 19.6001Z" fill="black"/>
<defs>
<linearGradient id="paint0_linear" x1="41.2853" y1="14.0004" x2="17.1077" y2="46.0475" gradientUnits="userSpaceOnUse">
<stop stop-color="white"/>
<stop offset="1" stop-color="white" stop-opacity="0"/>
</linearGradient>
</defs>
</svg>
