<svg width="56" height="56" viewBox="0 0 56 56" fill="none" xmlns="http://www.w3.org/2000/svg">
<rect width="56" height="56" fill="#F2F2F2"/>
<g clip-path="url(#clip0)">
<path fill-rule="evenodd" clip-rule="evenodd" d="M37.9446 20.4165H27.1596C23.4377 20.4165 20.418 23.4347 20.418 27.1566V37.9431C20.418 41.665 23.4377 44.6832 27.1596 44.6832H37.9446C41.6665 44.6832 44.6846 41.665 44.6846 37.9431V27.1566C44.6846 23.4347 41.6665 20.4165 37.9446 20.4165Z" fill="#FFCC00"/>
<path fill-rule="evenodd" clip-rule="evenodd" d="M33.3938 15.8662H22.6088C18.8869 15.8662 15.8672 18.8844 15.8672 22.6063V33.3928C15.8672 37.1147 18.8869 40.1329 22.6088 40.1329H33.3938C37.1157 40.1329 40.1339 37.1147 40.1339 33.3928V22.6063C40.1339 18.8844 37.1157 15.8662 33.3938 15.8662Z" fill="#FF7B00"/>
<path fill-rule="evenodd" clip-rule="evenodd" d="M28.845 11.3164H18.0599C14.338 11.3164 11.3184 14.3346 11.3184 18.0565V28.843C11.3184 32.5649 14.338 35.5831 18.0599 35.5831H28.845C32.5669 35.5831 35.585 32.5649 35.585 28.843V18.0565C35.585 14.3346 32.5669 11.3164 28.845 11.3164Z" fill="#4233FF"/>
<path fill-rule="evenodd" clip-rule="evenodd" d="M24.9694 15.8662H21.9361V21.9328H15.8691V24.9662H21.9361V31.0329H24.9694V24.9662H31.0358V21.9328H24.9694V15.8662Z" fill="white"/>
</g>
<defs>
<clipPath id="clip0">
<rect width="33.3667" height="33.3667" fill="white" transform="translate(11.3184 11.3164)"/>
</clipPath>
</defs>
</svg>
