<svg width="56" height="56" viewBox="0 0 56 56" fill="none" xmlns="http://www.w3.org/2000/svg">
<rect width="56" height="56" fill="#F2F2F2"/>
<path d="M32.3874 12.25C32.3874 12.25 37.8024 12.2153 41.135 15.1499C44.3154 17.9478 47.2883 20.8056 47.2496 29.3611C46.8638 37.9167 42.2064 42.1944 42.2064 42.1944L33.2498 42.1679C33.2498 42.1679 39.2885 39.7861 41.135 33.6389C43.3397 26.3836 41.4375 23.2064 38.7919 20.8056C37.7446 19.9086 36.1738 19.6975 35.5675 21.6234C33.5557 27.7706 29.303 42.1945 29.303 42.1945H26.8317C26.8317 42.1945 22.2015 27.7706 20.2173 21.6234C19.6385 19.6975 18.0677 19.9086 16.9929 20.8056C14.3473 23.2064 12.6875 26.3836 14.8922 33.6389C16.7387 39.7861 22.7499 42.1679 22.7499 42.1679L13.7933 42.1945C13.7933 42.1945 8.73363 37.9167 8.75004 29.3611C8.87112 20.8056 11.632 18.0529 14.8922 15.4651C18.3848 12.6864 23.6398 12.25 23.6398 12.25L28.0136 29.3611L32.3874 12.25Z" fill="#194EA6"/>
</svg>
