<svg width="56" height="56" viewBox="0 0 56 56" fill="none" xmlns="http://www.w3.org/2000/svg">
<rect width="56" height="56" fill="#F2F2F2"/>
<path d="M20.4272 30.9387L15.695 41.3873H12.25L17.4364 30.2194C14.9947 29.0079 13.3668 26.7933 13.3668 22.6479C13.3668 16.9693 17.0579 14.0732 21.4304 14.0732H25.8786V41.3873H22.9068V30.9387H20.4272ZM22.9068 16.6097H21.3168C18.9129 16.6097 16.5847 18.1808 16.5847 22.7047C16.5847 27.2286 18.7236 28.4969 21.3168 28.4969H22.9068V16.6097Z" fill="#FF3C2B"/>
<path d="M36.8423 21.8252L44.2959 22.9057C44.6179 22.934 44.9251 23.0534 45.1818 23.2499C45.4384 23.4464 45.6339 23.7119 45.7452 24.0153C45.8566 24.3188 45.8794 24.6476 45.8108 24.9635C45.7423 25.2794 45.5852 25.5692 45.3581 25.7992L39.864 31.0734L41.1277 38.4904C41.1531 38.8048 41.0968 39.1204 40.9644 39.4067C40.832 39.693 40.6278 39.9403 40.3718 40.1245C40.1157 40.3087 39.8164 40.4237 39.5028 40.4582C39.1893 40.4928 38.8721 40.4457 38.5821 40.3217L31.9527 36.8421L28.6562 38.5636V18.602L30.396 15.0859C30.5603 14.8208 30.7894 14.6022 31.0619 14.4505C31.3343 14.2988 31.6409 14.2192 31.9527 14.2192C32.2644 14.2192 32.5711 14.2988 32.8435 14.4505C33.1159 14.6022 33.3451 14.8208 33.5093 15.0859L36.8423 21.8252Z" fill="#FFCC00"/>
<path d="M36.8423 21.8252L44.2959 22.9057C44.6179 22.934 44.9251 23.0534 45.1818 23.2499C45.4384 23.4464 45.6339 23.7119 45.7452 24.0153C45.8566 24.3188 45.8794 24.6476 45.8108 24.9635C45.7423 25.2794 45.5852 25.5692 45.3581 25.7992L39.864 31.0734L41.1277 38.4904C41.1531 38.8048 41.0968 39.1204 40.9644 39.4067C40.832 39.693 40.6278 39.9403 40.3718 40.1245C40.1157 40.3087 39.8164 40.4237 39.5028 40.4582C39.1893 40.4928 38.8721 40.4457 38.5821 40.3217L31.9527 36.8421L28.6562 38.5636V18.602L30.396 15.0859C30.5603 14.8208 30.7894 14.6022 31.0619 14.4505C31.3343 14.2988 31.6409 14.2192 31.9527 14.2192C32.2644 14.2192 32.5711 14.2988 32.8435 14.4505C33.1159 14.6022 33.3451 14.8208 33.5093 15.0859L36.8423 21.8252Z" fill="url(#paint0_linear)" fill-opacity="0.4"/>
<defs>
<linearGradient id="paint0_linear" x1="43.5278" y1="17.2485" x2="25.5749" y2="32.8347" gradientUnits="userSpaceOnUse">
<stop stop-color="white"/>
<stop offset="1" stop-color="white" stop-opacity="0"/>
</linearGradient>
</defs>
</svg>
