<svg width="56" height="56" viewBox="0 0 56 56" fill="none" xmlns="http://www.w3.org/2000/svg">
<rect width="56" height="56" fill="#F2F2F2"/>
<rect opacity="0.01" x="7" y="7" width="42" height="42" fill="#D8D8D8"/>
<path fill-rule="evenodd" clip-rule="evenodd" d="M26.1617 46.5496C33.7954 46.5496 39.9837 40.3613 39.9837 32.7277C39.9837 25.094 33.7954 18.9058 26.1617 18.9058C18.5281 18.9058 12.3398 25.094 12.3398 32.7277C12.3398 40.3613 18.5281 46.5496 26.1617 46.5496Z" fill="#FFCC00"/>
<path fill-rule="evenodd" clip-rule="evenodd" d="M26.1617 46.5496C33.7954 46.5496 39.9837 40.3613 39.9837 32.7277C39.9837 25.094 33.7954 18.9058 26.1617 18.9058C18.5281 18.9058 12.3398 25.094 12.3398 32.7277C12.3398 40.3613 18.5281 46.5496 26.1617 46.5496Z" fill="url(#paint0_linear)" fill-opacity="0.4"/>
<path fill-rule="evenodd" clip-rule="evenodd" d="M33.1537 11.1006H31.8528V28.4507C30.5579 26.6118 28.4186 25.4104 25.9986 25.4104C22.0471 25.4104 18.8438 28.6137 18.8438 32.5652C18.8438 36.5168 22.0471 39.7201 25.9986 39.7201C29.9501 39.7201 33.1535 36.5168 33.1535 32.5652C33.1535 32.346 33.1436 32.129 33.1243 31.9147H33.1537V11.1006Z" fill="#FF3333"/>
<path fill-rule="evenodd" clip-rule="evenodd" d="M31.8535 10.2043C31.8535 9.85301 32.2062 9.61125 32.5339 9.73795L42.2606 13.4994V20.2069L31.8535 16.1824V10.2043Z" fill="#FF3333"/>
<defs>
<linearGradient id="paint0_linear" x1="36.2506" y1="22.0959" x2="17.889" y2="46.4339" gradientUnits="userSpaceOnUse">
<stop stop-color="white"/>
<stop offset="1" stop-color="white" stop-opacity="0"/>
</linearGradient>
</defs>
</svg>
