<svg width="56" height="56" viewBox="0 0 56 56" fill="none" xmlns="http://www.w3.org/2000/svg">
<rect width="56" height="56" fill="#F2F2F2"/>
<path d="M23.1396 39.3037V44.1983C23.1473 44.7729 23.379 45.322 23.7853 45.7285C24.1916 46.135 24.7404 46.3669 25.3151 46.3749H30.6676C30.9495 46.3787 31.2294 46.3269 31.4913 46.2225C31.7532 46.1181 31.992 45.9632 32.194 45.7665C32.396 45.5698 32.5573 45.3353 32.6687 45.0763C32.7801 44.8172 32.8393 44.5388 32.8431 44.2569C32.8433 44.2378 32.8433 44.2186 32.8431 44.1994V39.3037H23.1396Z" fill="#FF3E33"/>
<path fill-rule="evenodd" clip-rule="evenodd" d="M37.4389 28.8678C39.307 26.6899 40.4357 23.8591 40.4357 20.7647C40.4357 13.8876 34.8607 8.3125 27.9835 8.3125C21.1063 8.3125 15.5312 13.8876 15.5312 20.7647C15.5312 23.8553 16.6572 26.683 18.5213 28.8598C19.7072 30.3816 23.1414 35.143 23.1414 39.303H32.8353C32.8353 35.0148 36.2379 30.3739 37.4389 28.8678Z" fill="#FFCC00"/>
<path fill-rule="evenodd" clip-rule="evenodd" d="M37.4389 28.8678C39.307 26.6899 40.4357 23.8591 40.4357 20.7647C40.4357 13.8876 34.8607 8.3125 27.9835 8.3125C21.1063 8.3125 15.5312 13.8876 15.5312 20.7647C15.5312 23.8553 16.6572 26.683 18.5213 28.8598C19.7072 30.3816 23.1414 35.143 23.1414 39.303H32.8353C32.8353 35.0148 36.2379 30.3739 37.4389 28.8678Z" fill="url(#paint0_radial)" fill-opacity="0.5"/>
<path d="M33.0924 23.7465C32.9852 23.5709 32.8337 23.4266 32.6531 23.328C32.4725 23.2295 32.2692 23.1802 32.0635 23.1851H28.3227L31.8768 15.6095C32.0244 15.3116 32.048 14.9673 31.9426 14.652C31.8372 14.3366 31.6113 14.0758 31.3141 13.9265C31.1374 13.8502 30.9447 13.8179 30.7527 13.8325H25.4902C25.4474 13.8325 25.4064 13.8495 25.3761 13.8798C25.3459 13.91 25.3289 13.9511 25.3289 13.9939V16.1036C25.3289 16.1248 25.3331 16.1458 25.3412 16.1653C25.3493 16.1849 25.3612 16.2027 25.3761 16.2177C25.3911 16.2326 25.4089 16.2445 25.4285 16.2526C25.4481 16.2607 25.469 16.2649 25.4902 16.2649H28.789L25.2361 23.8393C25.1103 24.1403 25.0979 24.4766 25.2011 24.7861C25.3044 25.0956 25.5162 25.3571 25.7975 25.5223C25.9743 25.5986 26.167 25.6309 26.3589 25.6163H30.0997L25.7874 34.7795C25.7779 34.7996 25.7737 34.8218 25.7751 34.844C25.7765 34.8661 25.7835 34.8876 25.7954 34.9064C25.8073 34.9252 25.8237 34.9406 25.8432 34.9513C25.8627 34.962 25.8846 34.9677 25.9068 34.9677H28.3271C28.3521 34.9677 28.3766 34.9606 28.3977 34.9472C28.4189 34.9338 28.4358 34.9147 28.4464 34.892L33.1804 24.8681C33.2582 24.6881 33.2908 24.4919 33.2755 24.2964C33.2602 24.1009 33.1973 23.9121 33.0924 23.7465Z" fill="white"/>
<defs>
<radialGradient id="paint0_radial" cx="0" cy="0" r="1" gradientUnits="userSpaceOnUse" gradientTransform="translate(33.25 16.1875) rotate(98.6156) scale(21.9034 13.2708)">
<stop stop-color="white"/>
<stop offset="1" stop-color="white" stop-opacity="0"/>
</radialGradient>
</defs>
</svg>
