<svg width="56" height="56" viewBox="0 0 56 56" fill="none" xmlns="http://www.w3.org/2000/svg">
<rect width="56" height="56" fill="#F2F2F2"/>
<g clip-path="url(#clip0)">
<circle cx="28" cy="28" r="18.375" fill="white"/>
<path fill-rule="evenodd" clip-rule="evenodd" d="M12.2563 12.25C15.0112 9.63249 20.1863 9.62502 27.8466 9.625C27.5835 17.7625 27.3862 21.5032 24.4918 24.4563C21.5315 27.3438 17.782 27.5406 9.625 27.8032C9.625 20.4531 9.625 15.0062 12.2563 12.25ZM43.8314 12.25C41.1344 9.625 35.8718 9.625 28.307 9.625H28.2412C28.5043 17.7625 28.7017 21.5032 31.596 24.4563C34.5404 27.3283 38.2658 27.5384 46.3324 27.7989C46.4627 20.4189 46.4545 14.9976 43.8314 12.25ZM31.596 31.5433C34.5402 28.6714 38.2654 28.4611 46.3312 28.2006V28.2621C46.3312 35.5464 46.3312 41.0589 43.6999 43.7496C41.0106 46.367 35.7708 46.3746 28.2412 46.3746C28.5043 38.2371 28.7017 34.4964 31.596 31.5433ZM12.2563 43.7499C9.625 40.9936 9.625 35.5467 9.625 28.1967C17.782 28.4593 21.5315 28.6561 24.4918 31.5436C27.3862 34.4967 27.5835 38.2374 27.8466 46.3749H27.7808C20.2159 46.3749 14.9533 46.3749 12.2563 43.7499Z" fill="#232531"/>
<path fill-rule="evenodd" clip-rule="evenodd" d="M12.2563 12.25C15.0112 9.63249 20.1863 9.62502 27.8466 9.625C27.5835 17.7625 27.3862 21.5032 24.4918 24.4563C21.5315 27.3438 17.782 27.5406 9.625 27.8032C9.625 20.4531 9.625 15.0062 12.2563 12.25ZM43.8314 12.25C41.1344 9.625 35.8718 9.625 28.307 9.625H28.2412C28.5043 17.7625 28.7017 21.5032 31.596 24.4563C34.5404 27.3283 38.2658 27.5384 46.3324 27.7989C46.4627 20.4189 46.4545 14.9976 43.8314 12.25ZM31.596 31.5433C34.5402 28.6714 38.2654 28.4611 46.3312 28.2006V28.2621C46.3312 35.5464 46.3312 41.0589 43.6999 43.7496C41.0106 46.367 35.7708 46.3746 28.2412 46.3746C28.5043 38.2371 28.7017 34.4964 31.596 31.5433ZM12.2563 43.7499C9.625 40.9936 9.625 35.5467 9.625 28.1967C17.782 28.4593 21.5315 28.6561 24.4918 31.5436C27.3862 34.4967 27.5835 38.2374 27.8466 46.3749H27.7808C20.2159 46.3749 14.9533 46.3749 12.2563 43.7499Z" fill="url(#paint0_linear)"/>
</g>
<defs>
<linearGradient id="paint0_linear" x1="46.3749" y1="46.3749" x2="46.3749" y2="9.625" gradientUnits="userSpaceOnUse">
<stop stop-color="white" stop-opacity="0.01"/>
<stop offset="0.47509" stop-color="white" stop-opacity="0.01"/>
<stop offset="0.76042" stop-color="white" stop-opacity="0.04271"/>
<stop offset="0.99531" stop-color="white" stop-opacity="0.09855"/>
<stop offset="1" stop-color="white" stop-opacity="0.1"/>
</linearGradient>
<clipPath id="clip0">
<rect width="36.75" height="36.75" fill="white" transform="translate(9.625 9.625)"/>
</clipPath>
</defs>
</svg>
