<svg width="56" height="56" viewBox="0 0 56 56" fill="none" xmlns="http://www.w3.org/2000/svg">
<rect width="56" height="56" fill="#F2F2F2"/>
<path d="M13.3008 40.2188H20.9371V43.8006C20.9371 44.3529 20.4894 44.8006 19.9371 44.8006H14.3008C13.7485 44.8006 13.3008 44.3529 13.3008 43.8006V40.2188Z" fill="black"/>
<path d="M34.6826 40.2188H42.319V43.8006C42.319 44.3529 41.8713 44.8006 41.319 44.8006H35.6826C35.1303 44.8006 34.6826 44.3529 34.6826 43.8006V40.2188Z" fill="black"/>
<path d="M13.3008 14.1109C13.3008 12.0047 22.638 11.2002 27.8099 11.2002C32.914 11.2002 42.319 12.0047 42.319 14.1109V40.2184H13.3008V14.1109Z" fill="#007AFF"/>
<path opacity="0.9807" d="M16.7787 15.8196C19.1583 14.9841 22.8338 14.5664 27.809 14.5664C32.7842 14.5664 36.4597 14.9841 38.8393 15.8196C39.09 15.9088 39.2636 16.1904 39.2636 16.5142V28.8056C39.2636 29.2046 39.0013 29.5284 38.6812 29.5284H16.9369C16.6168 29.5284 16.3545 29.2046 16.3545 28.8056V16.5142C16.3545 16.1951 16.528 15.9088 16.7787 15.8196Z" fill="white"/>
<path d="M23.9911 37.1636H31.6274C33.4016 37.1636 34.5596 38.4911 34.682 40.2181H20.9365C21.0542 38.4911 22.2169 37.1636 23.9911 37.1636Z" fill="#0061DC"/>
<path fill-rule="evenodd" clip-rule="evenodd" d="M18.6454 37.1638C19.9106 37.1638 20.9363 36.1382 20.9363 34.8729C20.9363 33.6077 19.9106 32.582 18.6454 32.582C17.3802 32.582 16.3545 33.6077 16.3545 34.8729C16.3545 36.1382 17.3802 37.1638 18.6454 37.1638Z" fill="white"/>
<path fill-rule="evenodd" clip-rule="evenodd" d="M18.6454 37.1638C19.9106 37.1638 20.9363 36.1382 20.9363 34.8729C20.9363 33.6077 19.9106 32.582 18.6454 32.582C17.3802 32.582 16.3545 33.6077 16.3545 34.8729C16.3545 36.1382 17.3802 37.1638 18.6454 37.1638Z" fill="white"/>
<path fill-rule="evenodd" clip-rule="evenodd" d="M36.9725 37.1638C38.2378 37.1638 39.2635 36.1382 39.2635 34.8729C39.2635 33.6077 38.2378 32.582 36.9725 32.582C35.7073 32.582 34.6816 33.6077 34.6816 34.8729C34.6816 36.1382 35.7073 37.1638 36.9725 37.1638Z" fill="white"/>
</svg>
