<svg width="56" height="56" viewBox="0 0 56 56" fill="none" xmlns="http://www.w3.org/2000/svg">
<rect width="56" height="56" fill="#F2F2F2"/>
<path d="M19.4883 37.0352C19.6105 38.4686 19.8783 41.6764 19.9927 43.0172C20.0211 43.3349 20.1501 43.6352 20.3608 43.8746C20.5715 44.114 20.853 44.2801 21.1645 44.3486C23.3333 44.8313 25.5492 45.0706 27.7711 45.062C30.1555 45.0735 32.5326 44.7973 34.8508 44.2394C35.1576 44.1663 35.4337 43.9988 35.6402 43.7604C35.8467 43.522 35.9731 43.2249 36.0017 42.9108L36.499 37.0352L19.4883 37.0352Z" fill="#5FBBFF"/>
<path d="M44.758 18.4625C44.7573 18.2746 44.7107 18.0897 44.6221 17.924C41.1799 13.4195 30.3838 9.2787 17.7364 11.6071C17.5897 11.6328 17.4575 11.7114 17.3648 11.828C17.2721 11.9445 17.2253 12.091 17.2333 12.2398L17.7257 17.7861C24.8912 18.0974 34.3022 20.5751 37.5213 22.0445H41.8848C41.8848 22.0445 44.762 18.7445 44.758 18.4625Z" fill="#0269E8"/>
<path d="M39.5154 23.0474C39.3027 22.8247 39.0796 22.5916 38.833 22.3348C32.9509 16.2101 11.3498 15.39 11 18.2636C11.1077 18.806 11.2866 19.4875 11.4723 20.1872C11.7503 21.235 17.8949 23.0474 17.8949 23.0474H39.5154Z" fill="#0459CB"/>
<path d="M15.0977 27.9497L15.7637 35.6632C15.7908 35.9657 15.909 36.2528 16.1027 36.4867C16.2964 36.7206 16.5565 36.8903 16.8486 36.9733C20.4281 37.9553 24.1278 38.4295 27.8392 38.3818C31.6913 38.4364 35.5304 37.922 39.2322 36.8552C39.5218 36.7688 39.7785 36.597 39.969 36.3624C40.1594 36.1278 40.2747 35.8412 40.2997 35.54L40.9005 27.9497H15.0977Z" fill="#52AAFF"/>
<path d="M44.4457 17.6943C45.0782 19.114 42.1834 20.4923 38.5912 21.2031C29.2106 23.0593 12.146 22.0998 11.11 18.4199C11.0797 18.3371 11.0685 18.2484 11.0772 18.1607C11.086 18.0729 11.1144 17.9882 11.1604 17.9129C11.0809 17.9939 11.02 18.0914 10.9821 18.1985C10.9442 18.3055 10.9302 18.4196 10.9411 18.5326L11.6172 26.6706C11.6362 26.9323 11.7247 27.1843 11.8736 27.4004C12.0226 27.6164 12.2266 27.7888 12.4645 27.8996C16.7252 29.8099 22.2819 30.7884 27.8093 30.7884C33.5469 30.7884 39.3193 29.7362 43.6378 27.6798C43.8676 27.5663 44.0638 27.3947 44.2069 27.1821C44.3499 26.9694 44.435 26.723 44.4535 26.4674C44.4535 26.4674 45.0359 19.4544 45.0541 19.276C45.0697 18.9844 45.0236 18.6928 44.9188 18.4202C44.814 18.1476 44.6527 17.9003 44.4457 17.6943Z" fill="#2D92FA"/>
</svg>
